<?xml version="1.0" encoding="UTF-8"?>
<!DOCTYPE svg PUBLIC "-//W3C//DTD SVG 1.1//EN" "http://www.w3.org/Graphics/SVG/1.1/DTD/svg11.dtd">
<svg xmlns="http://www.w3.org/2000/svg" version="1.1" width="300px" height="300px" style="shape-rendering:geometricPrecision; text-rendering:geometricPrecision; image-rendering:optimizeQuality; fill-rule:evenodd; clip-rule:evenodd" xmlns:xlink="http://www.w3.org/1999/xlink">
<g><path style="opacity:1" fill="#433729" d="M 222.5,29.5 C 222.254,34.7443 222.588,40.0776 223.5,45.5C 219.702,46.4834 215.702,46.8168 211.5,46.5C 214.046,46.0181 216.379,45.0181 218.5,43.5C 217.732,39.5548 217.232,35.5548 217,31.5C 215.989,32.3366 214.822,32.67 213.5,32.5C 215.956,30.1324 218.956,29.1324 222.5,29.5 Z"/></g>
<g><path style="opacity:0.998" fill="#6d5c43" d="M 223.5,45.5 C 222.588,40.0776 222.254,34.7443 222.5,29.5C 232.681,29.5331 234.681,33.8665 228.5,42.5C 227.06,43.9524 225.394,44.9524 223.5,45.5 Z"/></g>
<g><path style="opacity:1" fill="#332b21" d="M 85.5,27.5 C 89.8314,29.33 93.8314,31.6634 97.5,34.5C 95.323,34.4139 93.323,33.7472 91.5,32.5C 90.1132,36.1715 89.7799,39.8381 90.5,43.5C 96.1711,44.8426 101.838,46.1759 107.5,47.5C 107.027,48.9063 106.027,49.573 104.5,49.5C 97.973,46.0206 90.973,44.3539 83.5,44.5C 85.1234,38.9883 85.7901,33.3216 85.5,27.5 Z"/></g>
<g><path style="opacity:0.997" fill="#6d5b43" d="M 85.5,27.5 C 85.7901,33.3216 85.1234,38.9883 83.5,44.5C 82.9642,45.3353 82.1309,45.3353 81,44.5C 76.6673,41.826 73.834,37.9927 72.5,33C 73.5035,29.4832 75.8369,27.3166 79.5,26.5C 81.4149,26.3163 83.4149,26.6497 85.5,27.5 Z"/></g>
<g><path style="opacity:1" fill="#12100d" d="M 211.5,46.5 C 208.37,46.6997 205.37,47.3664 202.5,48.5C 200.833,48.5 199.167,48.5 197.5,48.5C 197.5,46.8333 197.5,45.1667 197.5,43.5C 201.782,38.3549 207.115,34.6882 213.5,32.5C 214.822,32.67 215.989,32.3366 217,31.5C 217.232,35.5548 217.732,39.5548 218.5,43.5C 216.379,45.0181 214.046,46.0181 211.5,46.5 Z"/></g>
<g><path style="opacity:0.998" fill="#100e0c" d="M 97.5,34.5 C 102.188,37.188 105.855,40.8547 108.5,45.5C 108.672,46.4916 108.338,47.1583 107.5,47.5C 101.838,46.1759 96.1711,44.8426 90.5,43.5C 89.7799,39.8381 90.1132,36.1715 91.5,32.5C 93.323,33.7472 95.323,34.4139 97.5,34.5 Z"/></g>
<g><path style="opacity:0.831" fill="#968577" d="M 108.5,45.5 C 114.512,50.8702 118.512,57.5369 120.5,65.5C 119.817,67.1765 118.483,67.8432 116.5,67.5C 114.461,60.1393 110.461,54.1393 104.5,49.5C 106.027,49.573 107.027,48.9063 107.5,47.5C 108.338,47.1583 108.672,46.4916 108.5,45.5 Z"/></g>
<g><path style="opacity:0.875" fill="#998879" d="M 197.5,43.5 C 197.5,45.1667 197.5,46.8333 197.5,48.5C 199.167,48.5 200.833,48.5 202.5,48.5C 199.022,49.7731 195.855,51.7731 193,54.5C 189.13,58.9053 186.297,63.9053 184.5,69.5C 183.292,70.2341 181.959,70.5674 180.5,70.5C 180.433,69.0413 180.766,67.7079 181.5,66.5C 184.473,57.1935 189.806,49.5268 197.5,43.5 Z"/></g>
<g><path style="opacity:1" fill="#f3e88d" d="M 138.5,61.5 C 138.5,63.1667 138.5,64.8333 138.5,66.5C 139.675,66.281 140.675,66.6143 141.5,67.5C 138.407,67.9981 135.574,68.9981 133,70.5C 131.701,70.0338 130.201,70.0338 128.5,70.5C 128.5,71.5 128.5,72.5 128.5,73.5C 126.027,73.0882 124.694,74.0882 124.5,76.5C 124.167,76.5 123.833,76.5 123.5,76.5C 120.717,72.9917 117.051,71.6583 112.5,72.5C 112.5,72.1667 112.5,71.8333 112.5,71.5C 113.5,69.8333 114.833,68.5 116.5,67.5C 118.483,67.8432 119.817,67.1765 120.5,65.5C 126.28,64.3039 131.947,62.6373 137.5,60.5C 138.107,60.6236 138.44,60.9569 138.5,61.5 Z"/></g>
<g><path style="opacity:1" fill="#f8f2a5" d="M 148.5,61.5 C 147.85,63.4467 146.683,65.1134 145,66.5C 141.38,61.2277 140.88,61.561 143.5,67.5C 149.559,68.3451 155.559,69.5118 161.5,71C 159.405,71.5556 159.238,72.0556 161,72.5C 161.772,72.3552 162.439,72.0219 163,71.5C 166.129,72.7351 168.629,74.7351 170.5,77.5C 168.525,79.137 166.525,80.8036 164.5,82.5C 164.586,81.5041 164.252,80.6708 163.5,80C 160.626,77.9592 157.626,76.1259 154.5,74.5C 155.428,73.2322 155.595,71.8989 155,70.5C 152.467,71.8724 149.8,72.8724 147,73.5C 145.846,71.0426 144.512,71.0426 143,73.5C 141.054,73.4121 139.054,73.0788 137,72.5C 133.984,74.3966 131.151,76.3966 128.5,78.5C 127.005,78.0113 125.671,77.3446 124.5,76.5C 124.694,74.0882 126.027,73.0882 128.5,73.5C 128.5,72.5 128.5,71.5 128.5,70.5C 130.201,70.0338 131.701,70.0338 133,70.5C 135.574,68.9981 138.407,67.9981 141.5,67.5C 140.675,66.6143 139.675,66.281 138.5,66.5C 138.5,64.8333 138.5,63.1667 138.5,61.5C 142.189,60.3366 145.523,60.3366 148.5,61.5 Z"/></g>
<g><path style="opacity:1" fill="#f5ec91" d="M 181.5,66.5 C 180.766,67.7079 180.433,69.0413 180.5,70.5C 181.959,70.5674 183.292,70.2341 184.5,69.5C 186.027,69.427 187.027,70.0937 187.5,71.5C 182.266,71.0195 177.932,72.6861 174.5,76.5C 173.292,77.2341 171.959,77.5674 170.5,77.5C 168.629,74.7351 166.129,72.7351 163,71.5C 162.439,72.0219 161.772,72.3552 161,72.5C 159.238,72.0556 159.405,71.5556 161.5,71C 155.559,69.5118 149.559,68.3451 143.5,67.5C 140.88,61.561 141.38,61.2277 145,66.5C 146.683,65.1134 147.85,63.4467 148.5,61.5C 151.141,59.4857 153.974,59.4857 157,61.5C 158.268,61.3842 159.602,61.0509 161,60.5C 165.953,62.2825 170.787,63.4492 175.5,64C 176.988,66.7623 178.988,67.5956 181.5,66.5 Z"/></g>
<g><path style="opacity:1" fill="#f8f3ab" d="M 164.5,82.5 C 162.167,85.1667 159.833,87.8333 157.5,90.5C 157.586,89.5041 157.252,88.6708 156.5,88C 152.637,86.2678 148.637,84.9344 144.5,84C 141.518,83.2971 138.851,83.7971 136.5,85.5C 133.808,83.1377 131.141,80.8044 128.5,78.5C 131.151,76.3966 133.984,74.3966 137,72.5C 139.054,73.0788 141.054,73.4121 143,73.5C 144.512,71.0426 145.846,71.0426 147,73.5C 149.8,72.8724 152.467,71.8724 155,70.5C 155.595,71.8989 155.428,73.2322 154.5,74.5C 157.626,76.1259 160.626,77.9592 163.5,80C 164.252,80.6708 164.586,81.5041 164.5,82.5 Z"/></g>
<g><path style="opacity:1" fill="#fae147" d="M 112.5,71.5 C 112.5,71.8333 112.5,72.1667 112.5,72.5C 102.145,72.1681 91.8119,72.5014 81.5,73.5C 90.4754,74.4982 99.4754,74.8315 108.5,74.5C 111.598,76.5267 114.598,78.6934 117.5,81C 118.337,82.0113 118.67,83.1779 118.5,84.5C 115.828,82.6615 112.828,81.4949 109.5,81C 99.172,80.5002 88.8387,80.3335 78.5,80.5C 79.1589,78.8621 79.8256,77.1955 80.5,75.5C 75.6819,74.1876 71.0152,74.1876 66.5,75.5C 63.2364,76.9274 60.7364,79.2608 59,82.5C 55.1992,89.4374 51.6992,96.4374 48.5,103.5C 48.631,102.761 48.4643,102.094 48,101.5C 47.5831,102.756 46.7498,103.423 45.5,103.5C 50.5114,93.3133 56.1781,83.4799 62.5,74C 63.8333,73.3333 65.1667,72.6667 66.5,72C 81.8297,71.5001 97.163,71.3334 112.5,71.5 Z"/></g>
<g><path style="opacity:1" fill="#fded89" d="M 66.5,75.5 C 71.0152,74.1876 75.6819,74.1876 80.5,75.5C 79.8256,77.1955 79.1589,78.8621 78.5,80.5C 77.7659,81.7079 77.4326,83.0413 77.5,84.5C 76.6618,84.8417 76.3284,85.5084 76.5,86.5C 75.8333,86.5 75.1667,86.5 74.5,86.5C 77.7814,81.0873 76.448,79.4206 70.5,81.5C 71.3414,79.6208 71.6747,77.6208 71.5,75.5C 69.8333,75.5 68.1667,75.5 66.5,75.5 Z"/></g>
<g><path style="opacity:1" fill="#fce446" d="M 216.5,71.5 C 222.621,71.0899 228.621,71.5899 234.5,73C 241.15,82.4722 247.15,92.3056 252.5,102.5C 251.167,102.5 250.5,103.167 250.5,104.5C 248.167,99.8333 245.833,95.1667 243.5,90.5C 241.043,84.5736 237.376,79.5736 232.5,75.5C 231.737,74.7321 230.737,74.2321 229.5,74C 225.514,73.5012 221.514,73.3345 217.5,73.5C 217.767,75.9653 218.434,78.2986 219.5,80.5C 207.131,80.2155 194.798,80.7155 182.5,82C 181.307,83.0946 179.973,83.928 178.5,84.5C 178.511,82.9826 179.177,81.8159 180.5,81C 184.42,79.4017 188.086,77.4017 191.5,75C 188.854,74.5026 186.187,74.3359 183.5,74.5C 194.705,74.1586 205.705,73.1586 216.5,71.5 Z"/></g>
<g><path style="opacity:1" fill="#fdee8e" d="M 232.5,75.5 C 231.5,75.5 230.5,75.5 229.5,75.5C 229.5,77.5 229.5,79.5 229.5,81.5C 227.135,80.9916 224.801,80.3249 222.5,79.5C 221.481,81.4595 221.481,83.4595 222.5,85.5C 222.167,85.5 221.833,85.5 221.5,85.5C 221.167,84.8333 220.833,84.1667 220.5,83.5C 220.443,82.391 220.11,81.391 219.5,80.5C 218.434,78.2986 217.767,75.9653 217.5,73.5C 221.514,73.3345 225.514,73.5012 229.5,74C 230.737,74.2321 231.737,74.7321 232.5,75.5 Z"/></g>
<g><path style="opacity:1" fill="#fcdb12" d="M 112.5,72.5 C 117.051,71.6583 120.717,72.9917 123.5,76.5C 123.66,78.153 124.326,79.4863 125.5,80.5C 131.167,90.5 136.833,100.5 142.5,110.5C 143.167,111.833 144.167,112.833 145.5,113.5C 147.092,116.966 147.758,120.633 147.5,124.5C 142.583,132.664 137.917,140.997 133.5,149.5C 131.807,152.19 129.473,154.19 126.5,155.5C 128.678,152.477 130.345,149.144 131.5,145.5C 137.837,137.979 140.504,129.145 139.5,119C 139.167,116.833 138.833,114.667 138.5,112.5C 137.673,116.459 137.173,120.459 137,124.5C 136.333,125.833 135.667,127.167 135,128.5C 133.961,127.756 133.461,126.756 133.5,125.5C 133.5,123.5 133.5,121.5 133.5,119.5C 127.842,108.025 121.509,96.8588 114.5,86C 102.267,84.5402 89.9337,84.0402 77.5,84.5C 77.4326,83.0413 77.7659,81.7079 78.5,80.5C 88.8387,80.3335 99.172,80.5002 109.5,81C 112.828,81.4949 115.828,82.6615 118.5,84.5C 124.85,91.3579 130.683,98.6912 136,106.5C 136.654,107.696 137.154,107.696 137.5,106.5C 132.252,97.002 126.752,87.6687 121,78.5C 117.518,75.1175 113.351,73.7841 108.5,74.5C 99.4754,74.8315 90.4754,74.4982 81.5,73.5C 91.8119,72.5014 102.145,72.1681 112.5,72.5 Z"/></g>
<g><path style="opacity:1" fill="#fcfaec" d="M 142.5,110.5 C 136.833,100.5 131.167,90.5 125.5,80.5C 136.329,86.028 142.329,95.3613 143.5,108.5C 143.457,109.416 143.124,110.083 142.5,110.5 Z"/></g>
<g><path style="opacity:1" fill="#d9bf47" d="M 174.5,76.5 C 174.34,78.153 173.674,79.4863 172.5,80.5C 163.563,84.6771 157.73,92.0105 155,102.5C 154.5,105 154,107.5 153.5,110C 153.528,111.07 153.861,111.903 154.5,112.5C 154.167,113.5 153.5,114.167 152.5,114.5C 151.871,105.977 153.538,97.977 157.5,90.5C 159.833,87.8333 162.167,85.1667 164.5,82.5C 166.525,80.8036 168.525,79.137 170.5,77.5C 171.959,77.5674 173.292,77.2341 174.5,76.5 Z"/></g>
<g><path style="opacity:1" fill="#fbf9eb" d="M 172.5,80.5 C 166.099,90.9107 160.099,101.577 154.5,112.5C 153.861,111.903 153.528,111.07 153.5,110C 154,107.5 154.5,105 155,102.5C 157.73,92.0105 163.563,84.6771 172.5,80.5 Z"/></g>
<g><path style="opacity:1" fill="#fdee80" d="M 183.5,74.5 C 186.187,74.3359 188.854,74.5026 191.5,75C 188.086,77.4017 184.42,79.4017 180.5,81C 179.177,81.8159 178.511,82.9826 178.5,84.5C 172.499,92.006 166.666,99.6727 161,107.5C 165.408,98.028 170.408,88.6947 176,79.5C 177.857,76.8002 180.357,75.1335 183.5,74.5 Z"/></g>
<g><path style="opacity:1" fill="#fcdc12" d="M 187.5,71.5 C 197.167,71.5 206.833,71.5 216.5,71.5C 205.705,73.1586 194.705,74.1586 183.5,74.5C 180.357,75.1335 177.857,76.8002 176,79.5C 170.408,88.6947 165.408,98.028 161,107.5C 166.666,99.6727 172.499,92.006 178.5,84.5C 179.973,83.928 181.307,83.0946 182.5,82C 194.798,80.7155 207.131,80.2155 219.5,80.5C 220.11,81.391 220.443,82.391 220.5,83.5C 208.399,83.0414 196.399,83.5414 184.5,85C 176.926,95.9821 170.259,107.482 164.5,119.5C 164.5,121.167 164.5,122.833 164.5,124.5C 163.5,123.167 162.5,123.167 161.5,124.5C 160.894,120.541 160.227,116.541 159.5,112.5C 157.058,124.2 159.225,134.867 166,144.5C 166.363,147.544 166.863,150.544 167.5,153.5C 165.75,152.341 164.75,150.674 164.5,148.5C 160.335,140.164 155.668,132.164 150.5,124.5C 150.152,120.915 150.819,117.582 152.5,114.5C 153.5,114.167 154.167,113.5 154.5,112.5C 160.099,101.577 166.099,90.9107 172.5,80.5C 173.674,79.4863 174.34,78.153 174.5,76.5C 177.932,72.6861 182.266,71.0195 187.5,71.5 Z"/></g>
<g><path style="opacity:1" fill="#fdee81" d="M 108.5,74.5 C 113.351,73.7841 117.518,75.1175 121,78.5C 126.752,87.6687 132.252,97.002 137.5,106.5C 137.154,107.696 136.654,107.696 136,106.5C 130.683,98.6912 124.85,91.3579 118.5,84.5C 118.67,83.1779 118.337,82.0113 117.5,81C 114.598,78.6934 111.598,76.5267 108.5,74.5 Z"/></g>
<g><path style="opacity:1" fill="#d9be48" d="M 123.5,76.5 C 123.833,76.5 124.167,76.5 124.5,76.5C 125.671,77.3446 127.005,78.0113 128.5,78.5C 131.141,80.8044 133.808,83.1377 136.5,85.5C 142.692,93.7436 145.692,103.077 145.5,113.5C 144.167,112.833 143.167,111.833 142.5,110.5C 143.124,110.083 143.457,109.416 143.5,108.5C 142.329,95.3613 136.329,86.028 125.5,80.5C 124.326,79.4863 123.66,78.153 123.5,76.5 Z"/></g>
<g><path style="opacity:0.996" fill="#ea8b0a" d="M 220.5,83.5 C 220.833,84.1667 221.167,84.8333 221.5,85.5C 215.69,86.4896 209.69,86.8229 203.5,86.5C 197.491,86.3338 191.491,86.5005 185.5,87C 183.536,88.451 182.203,90.2843 181.5,92.5C 179,95.4937 177,98.827 175.5,102.5C 173.917,104.663 172.584,106.996 171.5,109.5C 169.167,112.833 166.833,116.167 164.5,119.5C 170.259,107.482 176.926,95.9821 184.5,85C 196.399,83.5414 208.399,83.0414 220.5,83.5 Z"/></g>
<g><path style="opacity:1" fill="#fada2f" d="M 74.5,86.5 C 69.6193,87.0473 66.6193,89.7139 65.5,94.5C 62.4736,98.5278 59.8069,102.861 57.5,107.5C 57.5,108.167 57.1667,108.5 56.5,108.5C 55.0813,107.549 53.4147,107.216 51.5,107.5C 55.2241,101.056 58.7241,94.3893 62,87.5C 64.2787,84.6194 67.112,82.6194 70.5,81.5C 76.448,79.4206 77.7814,81.0873 74.5,86.5 Z"/></g>
<g><path style="opacity:1" fill="#fada2e" d="M 229.5,81.5 C 234.22,84.2301 237.553,88.2301 239.5,93.5C 240.778,95.7991 242.111,98.1324 243.5,100.5C 241.978,101.562 240.312,102.229 238.5,102.5C 236.5,99.5 234.5,96.5 232.5,93.5C 231.106,88.5625 227.772,85.8959 222.5,85.5C 221.481,83.4595 221.481,81.4595 222.5,79.5C 224.801,80.3249 227.135,80.9916 229.5,81.5 Z"/></g>
<g><path style="opacity:1" fill="#6d3916" d="M 203.5,86.5 C 200.5,87.0928 197.5,87.9261 194.5,89C 199.771,90.2772 205.104,91.2772 210.5,92C 214.673,95.3427 218.673,98.8427 222.5,102.5C 222.291,103.086 221.957,103.586 221.5,104C 219.167,104.333 216.833,104.667 214.5,105C 217.361,104.97 219.695,105.803 221.5,107.5C 217.497,108.5 213.497,109.5 209.5,110.5C 208.5,110.5 207.5,110.5 206.5,110.5C 205.504,110.586 204.671,110.252 204,109.5C 203.598,108.128 203.098,106.795 202.5,105.5C 203.025,104.808 203.692,104.308 204.5,104C 197.971,97.4016 190.304,93.5683 181.5,92.5C 182.203,90.2843 183.536,88.451 185.5,87C 191.491,86.5005 197.491,86.3338 203.5,86.5 Z"/></g>
<g><path style="opacity:1" fill="#fdf7c0" d="M 66.5,75.5 C 68.1667,75.5 69.8333,75.5 71.5,75.5C 71.6747,77.6208 71.3414,79.6208 70.5,81.5C 67.112,82.6194 64.2787,84.6194 62,87.5C 58.7241,94.3893 55.2241,101.056 51.5,107.5C 48.4429,111.258 45.6096,115.258 43,119.5C 43.9566,113.908 45.79,108.575 48.5,103.5C 51.6992,96.4374 55.1992,89.4374 59,82.5C 60.7364,79.2608 63.2364,76.9274 66.5,75.5 Z"/></g>
<g><path style="opacity:0.996" fill="#ee8b0a" d="M 77.5,84.5 C 89.9337,84.0402 102.267,84.5402 114.5,86C 121.509,96.8588 127.842,108.025 133.5,119.5C 129.5,113.5 125.5,107.5 121.5,101.5C 120.226,98.2402 118.56,95.2402 116.5,92.5C 115.607,89.5392 113.607,87.7059 110.5,87C 99.1716,86.5001 87.8382,86.3335 76.5,86.5C 76.3284,85.5084 76.6618,84.8417 77.5,84.5 Z"/></g>
<g><path style="opacity:1" fill="#703b17" d="M 76.5,86.5 C 87.8382,86.3335 99.1716,86.5001 110.5,87C 113.607,87.7059 115.607,89.5392 116.5,92.5C 106.697,92.4037 98.6972,96.0704 92.5,103.5C 79.5899,103.693 78.2565,99.8594 88.5,92C 91.0101,91.6237 93.3435,90.7904 95.5,89.5C 94.6721,88.5853 93.6721,87.9186 92.5,87.5C 89.7222,88.1196 86.8889,88.453 84,88.5C 81.0706,88.4752 78.5706,87.8086 76.5,86.5 Z"/></g>
<g><path style="opacity:1" fill="#956f53" d="M 221.5,85.5 C 221.833,85.5 222.167,85.5 222.5,85.5C 227.772,85.8959 231.106,88.5625 232.5,93.5C 227.848,88.602 222.182,87.2686 215.5,89.5C 217.965,92.7327 221.298,94.3994 225.5,94.5C 227.331,97.6701 226.664,100.17 223.5,102C 226.276,103.779 225.943,104.779 222.5,105C 223.566,106.159 223.233,106.992 221.5,107.5C 219.695,105.803 217.361,104.97 214.5,105C 216.833,104.667 219.167,104.333 221.5,104C 221.957,103.586 222.291,103.086 222.5,102.5C 218.673,98.8427 214.673,95.3427 210.5,92C 205.104,91.2772 199.771,90.2772 194.5,89C 197.5,87.9261 200.5,87.0928 203.5,86.5C 209.69,86.8229 215.69,86.4896 221.5,85.5 Z"/></g>
<g><path style="opacity:1" fill="#fdf8c9" d="M 232.5,75.5 C 237.376,79.5736 241.043,84.5736 243.5,90.5C 243.354,93.5498 242.02,94.5498 239.5,93.5C 237.553,88.2301 234.22,84.2301 229.5,81.5C 229.5,79.5 229.5,77.5 229.5,75.5C 230.5,75.5 231.5,75.5 232.5,75.5 Z"/></g>
<g><path style="opacity:1" fill="#642a09" d="M 116.5,92.5 C 118.56,95.2402 120.226,98.2402 121.5,101.5C 115.988,101.091 111.655,103.091 108.5,107.5C 105.516,109.82 103.849,112.82 103.5,116.5C 103.5,115.167 102.833,114.5 101.5,114.5C 97.0525,113.573 92.7192,112.24 88.5,110.5C 89.5923,107.976 90.9257,105.643 92.5,103.5C 98.6972,96.0704 106.697,92.4037 116.5,92.5 Z"/></g>
<g><path style="opacity:1" fill="#6d3916" d="M 181.5,92.5 C 190.304,93.5683 197.971,97.4016 204.5,104C 203.692,104.308 203.025,104.808 202.5,105.5C 203.098,106.795 203.598,108.128 204,109.5C 204.671,110.252 205.504,110.586 206.5,110.5C 205.626,111.525 204.459,112.192 203,112.5C 198.994,109.825 194.994,107.158 191,104.5C 189.97,104.836 189.47,105.503 189.5,106.5C 185.407,103.36 180.74,102.027 175.5,102.5C 177,98.827 179,95.4937 181.5,92.5 Z"/></g>
<g><path style="opacity:1" fill="#fcf7bd" d="M 157.5,90.5 C 153.538,97.977 151.871,105.977 152.5,114.5C 150.819,117.582 150.152,120.915 150.5,124.5C 149.5,125.833 148.5,125.833 147.5,124.5C 147.758,120.633 147.092,116.966 145.5,113.5C 145.692,103.077 142.692,93.7436 136.5,85.5C 138.851,83.7971 141.518,83.2971 144.5,84C 148.637,84.9344 152.637,86.2678 156.5,88C 157.252,88.6708 157.586,89.5041 157.5,90.5 Z"/></g>
<g><path style="opacity:1" fill="#895f40" d="M 74.5,86.5 C 75.1667,86.5 75.8333,86.5 76.5,86.5C 78.5706,87.8086 81.0706,88.4752 84,88.5C 86.8889,88.453 89.7222,88.1196 92.5,87.5C 93.6721,87.9186 94.6721,88.5853 95.5,89.5C 93.3435,90.7904 91.0101,91.6237 88.5,92C 78.2565,99.8594 79.5899,103.693 92.5,103.5C 90.9257,105.643 89.5923,107.976 88.5,110.5C 92.7192,112.24 97.0525,113.573 101.5,114.5C 101.083,115.124 100.416,115.457 99.5,115.5C 94.8237,114.319 90.157,113.486 85.5,113C 86.6721,113.419 87.6721,114.085 88.5,115C 85.9754,115.041 83.6421,114.207 81.5,112.5C 80.1667,113.167 79.1667,114.167 78.5,115.5C 79.8569,117.186 81.1902,118.852 82.5,120.5C 82.5,120.833 82.5,121.167 82.5,121.5C 79.1667,118.833 76.1667,115.833 73.5,112.5C 75.0461,111.364 76.8794,110.698 79,110.5C 81.8573,110.968 84.6906,111.134 87.5,111C 83.5,109.667 79.5,108.333 75.5,107C 77.7148,105.956 80.0481,105.29 82.5,105C 79.5,104.667 76.5,104.333 73.5,104C 76.0196,102.237 78.3529,100.237 80.5,98C 78.1959,98.5733 76.0292,99.74 74,101.5C 70.994,96.9702 72.494,94.1368 78.5,93C 79.1667,92 79.8333,91 80.5,90C 74.3457,87.7745 69.3457,89.2745 65.5,94.5C 66.6193,89.7139 69.6193,87.0473 74.5,86.5 Z"/></g>
<g><path style="opacity:1" fill="#cbbcb0" d="M 232.5,93.5 C 234.5,96.5 236.5,99.5 238.5,102.5C 238.328,103.492 238.662,104.158 239.5,104.5C 239.833,105.167 240.167,105.833 240.5,106.5C 239.5,106.5 238.5,106.5 237.5,106.5C 237.67,107.822 237.337,108.989 236.5,110C 237.928,112.13 239.595,113.13 241.5,113C 239.557,114.345 237.724,113.845 236,111.5C 234.803,113.563 234.47,116.563 235,120.5C 233.951,117.813 232.451,115.48 230.5,113.5C 229.833,113.5 229.167,113.5 228.5,113.5C 228.396,111.027 227.396,110.361 225.5,111.5C 224.784,110.689 223.95,110.022 223,109.5C 220.004,110.035 217.171,110.702 214.5,111.5C 212.585,111.784 210.919,111.451 209.5,110.5C 213.497,109.5 217.497,108.5 221.5,107.5C 223.233,106.992 223.566,106.159 222.5,105C 225.943,104.779 226.276,103.779 223.5,102C 226.664,100.17 227.331,97.6701 225.5,94.5C 221.298,94.3994 217.965,92.7327 215.5,89.5C 222.182,87.2686 227.848,88.602 232.5,93.5 Z"/></g>
<g><path style="opacity:1" fill="#ac8f75" d="M 65.5,94.5 C 64.6765,96.4546 64.5099,98.4546 65,100.5C 71.8553,93.253 73.022,93.9197 68.5,102.5C 64.4635,102.176 61.7968,103.842 60.5,107.5C 59.5,107.5 58.5,107.5 57.5,107.5C 59.8069,102.861 62.4736,98.5278 65.5,94.5 Z"/></g>
<g><path style="opacity:1" fill="#fcf4a4" d="M 243.5,90.5 C 245.833,95.1667 248.167,99.8333 250.5,104.5C 252.658,109.484 254.492,114.484 256,119.5C 252.236,113.628 248.236,107.961 244,102.5C 242.272,102.899 240.772,103.566 239.5,104.5C 238.662,104.158 238.328,103.492 238.5,102.5C 240.312,102.229 241.978,101.562 243.5,100.5C 242.111,98.1324 240.778,95.7991 239.5,93.5C 242.02,94.5498 243.354,93.5498 243.5,90.5 Z"/></g>
<g><path style="opacity:1" fill="#3b2615" d="M 175.5,102.5 C 180.74,102.027 185.407,103.36 189.5,106.5C 191.105,109.607 193.272,112.274 196,114.5C 197.528,118.611 197.694,122.611 196.5,126.5C 196.762,125.022 196.429,123.689 195.5,122.5C 188.757,117.046 181.924,111.713 175,106.5C 174.209,107.745 173.709,109.078 173.5,110.5C 172.833,110.167 172.167,109.833 171.5,109.5C 172.584,106.996 173.917,104.663 175.5,102.5 Z"/></g>
<g><path style="opacity:1" fill="#d6cac2" d="M 73.5,112.5 C 72.1779,112.33 71.0113,112.663 70,113.5C 69.5034,115.81 69.3367,118.143 69.5,120.5C 68.6909,118.708 68.1909,116.708 68,114.5C 67.3333,113.167 66.6667,113.167 66,114.5C 65.2676,111.289 63.4343,109.289 60.5,108.5C 60.5,108.167 60.5,107.833 60.5,107.5C 61.7968,103.842 64.4635,102.176 68.5,102.5C 73.022,93.9197 71.8553,93.253 65,100.5C 64.5099,98.4546 64.6765,96.4546 65.5,94.5C 69.3457,89.2745 74.3457,87.7745 80.5,90C 79.8333,91 79.1667,92 78.5,93C 72.494,94.1368 70.994,96.9702 74,101.5C 76.0292,99.74 78.1959,98.5733 80.5,98C 78.3529,100.237 76.0196,102.237 73.5,104C 76.5,104.333 79.5,104.667 82.5,105C 80.0481,105.29 77.7148,105.956 75.5,107C 79.5,108.333 83.5,109.667 87.5,111C 84.6906,111.134 81.8573,110.968 79,110.5C 76.8794,110.698 75.0461,111.364 73.5,112.5 Z"/></g>
<g><path style="opacity:1" fill="#fad918" d="M 250.5,104.5 C 250.5,103.167 251.167,102.5 252.5,102.5C 256.003,107.502 259.003,112.835 261.5,118.5C 261.498,122.511 260.332,126.178 258,129.5C 250.626,142.415 243.126,155.249 235.5,168C 234.167,168.667 232.833,169.333 231.5,170C 214.167,170.667 196.833,170.667 179.5,170C 176.22,167.225 173.554,164.058 171.5,160.5C 171.167,160.5 170.833,160.5 170.5,160.5C 169.242,158.313 168.242,155.98 167.5,153.5C 168.473,154.791 169.473,154.791 170.5,153.5C 172.864,156.699 175.03,160.032 177,163.5C 178.488,165.16 180.321,166.16 182.5,166.5C 196.044,168.336 209.711,169.003 223.5,168.5C 228.825,168.893 232.991,166.893 236,162.5C 240.333,154.5 244.667,146.5 249,138.5C 250.164,135.519 250.831,132.519 251,129.5C 244.157,139.196 237.324,148.862 230.5,158.5C 227.418,160.181 224.085,160.848 220.5,160.5C 209.833,159.833 199.167,159.167 188.5,158.5C 191.5,158.5 194.5,158.5 197.5,158.5C 203.833,158.5 210.167,158.5 216.5,158.5C 220.273,158.737 223.94,158.237 227.5,157C 230.887,152.39 233.887,147.557 236.5,142.5C 241.101,135.798 244.767,128.632 247.5,121C 245.85,115.865 243.516,111.032 240.5,106.5C 240.167,105.833 239.833,105.167 239.5,104.5C 240.772,103.566 242.272,102.899 244,102.5C 248.236,107.961 252.236,113.628 256,119.5C 254.492,114.484 252.658,109.484 250.5,104.5 Z"/></g>
<g><path style="opacity:1" fill="#fbda19" d="M 48.5,103.5 C 45.79,108.575 43.9566,113.908 43,119.5C 45.6096,115.258 48.4429,111.258 51.5,107.5C 53.4147,107.216 55.0813,107.549 56.5,108.5C 53.6985,112.438 51.6985,116.771 50.5,121.5C 51.6985,126.229 53.6985,130.562 56.5,134.5C 56.8333,135.167 57.1667,135.833 57.5,136.5C 56.2223,136.782 55.2223,137.449 54.5,138.5C 52.0184,135.571 49.5184,132.571 47,129.5C 46.3333,131.167 46.3333,132.833 47,134.5C 52.3983,144.962 58.065,155.295 64,165.5C 67.6714,168.196 71.8381,169.196 76.5,168.5C 87.5267,168.713 98.5267,168.38 109.5,167.5C 112.187,167.664 114.854,167.497 117.5,167C 120.745,163.267 123.745,159.434 126.5,155.5C 129.473,154.19 131.807,152.19 133.5,149.5C 132.773,151.954 131.773,154.287 130.5,156.5C 128.652,158.733 126.985,161.066 125.5,163.5C 123.691,166.139 121.358,168.306 118.5,170C 100.076,170.973 81.7428,170.64 63.5,169C 54.6217,154.747 46.1217,140.247 38,125.5C 37.502,122.518 37.3354,119.518 37.5,116.5C 39.4288,111.628 42.0955,107.295 45.5,103.5C 46.7498,103.423 47.5831,102.756 48,101.5C 48.4643,102.094 48.631,102.761 48.5,103.5 Z"/></g>
<g><path style="opacity:1" fill="#090604" d="M 108.5,107.5 C 111.527,109.86 114.194,112.527 116.5,115.5C 117.483,118.595 118.316,121.595 119,124.5C 116.599,123.398 114.099,123.231 111.5,124C 110.058,124.377 109.058,125.21 108.5,126.5C 107.167,126.5 105.833,126.5 104.5,126.5C 103.676,123.236 103.342,119.902 103.5,116.5C 103.849,112.82 105.516,109.82 108.5,107.5 Z"/></g>
<g><path style="opacity:1" fill="#342417" d="M 121.5,101.5 C 125.5,107.5 129.5,113.5 133.5,119.5C 133.5,121.5 133.5,123.5 133.5,125.5C 132.5,126.833 131.5,128.167 130.5,129.5C 129.766,128.292 129.433,126.959 129.5,125.5C 128.448,125.649 127.448,125.483 126.5,125C 123.297,121.629 119.964,118.462 116.5,115.5C 114.194,112.527 111.527,109.86 108.5,107.5C 111.655,103.091 115.988,101.091 121.5,101.5 Z"/></g>
<g><path style="opacity:1" fill="#763f14" d="M 101.5,114.5 C 102.833,114.5 103.5,115.167 103.5,116.5C 103.342,119.902 103.676,123.236 104.5,126.5C 102.097,126.448 99.7638,126.781 97.5,127.5C 97.1435,126.13 96.3102,125.13 95,124.5C 93,125.167 91,125.833 89,126.5C 86.9843,124.317 84.8176,122.317 82.5,120.5C 81.1902,118.852 79.8569,117.186 78.5,115.5C 79.1667,114.167 80.1667,113.167 81.5,112.5C 83.6421,114.207 85.9754,115.041 88.5,115C 87.6721,114.085 86.6721,113.419 85.5,113C 90.157,113.486 94.8237,114.319 99.5,115.5C 100.416,115.457 101.083,115.124 101.5,114.5 Z"/></g>
<g><path style="opacity:1" fill="#1c150f" d="M 116.5,115.5 C 119.964,118.462 123.297,121.629 126.5,125C 127.448,125.483 128.448,125.649 129.5,125.5C 129.433,126.959 129.766,128.292 130.5,129.5C 129.087,132.661 127.42,135.661 125.5,138.5C 123.143,138.663 120.81,138.497 118.5,138C 119.022,137.439 119.355,136.772 119.5,136C 120.5,127.187 116.834,124.02 108.5,126.5C 109.058,125.21 110.058,124.377 111.5,124C 114.099,123.231 116.599,123.398 119,124.5C 118.316,121.595 117.483,118.595 116.5,115.5 Z"/></g>
<g><path style="opacity:1" fill="#100b08" d="M 171.5,109.5 C 172.167,109.833 172.833,110.167 173.5,110.5C 174.552,110.351 175.552,110.517 176.5,111C 182.145,116.977 188.145,122.643 194.5,128C 191.248,134.655 185.914,137.489 178.5,136.5C 178.739,134.533 178.406,132.699 177.5,131C 174.274,129.801 170.941,129.301 167.5,129.5C 166.737,127.632 165.737,125.965 164.5,124.5C 164.5,122.833 164.5,121.167 164.5,119.5C 166.833,116.167 169.167,112.833 171.5,109.5 Z"/></g>
<g><path style="opacity:1" fill="#332518" d="M 196.5,126.5 C 195.977,129.878 194.644,132.878 192.5,135.5C 187.403,140.011 181.403,141.678 174.5,140.5C 171.931,137.039 169.597,133.372 167.5,129.5C 170.941,129.301 174.274,129.801 177.5,131C 178.406,132.699 178.739,134.533 178.5,136.5C 185.914,137.489 191.248,134.655 194.5,128C 188.145,122.643 182.145,116.977 176.5,111C 175.552,110.517 174.552,110.351 173.5,110.5C 173.709,109.078 174.209,107.745 175,106.5C 181.924,111.713 188.757,117.046 195.5,122.5C 196.429,123.689 196.762,125.022 196.5,126.5 Z"/></g>
<g><path style="opacity:1" fill="#754421" d="M 73.5,112.5 C 76.1667,115.833 79.1667,118.833 82.5,121.5C 82.8039,122.15 83.1373,122.817 83.5,123.5C 79.8037,127.858 75.4703,131.525 70.5,134.5C 69.5067,129.88 69.1734,125.214 69.5,120.5C 69.3367,118.143 69.5034,115.81 70,113.5C 71.0113,112.663 72.1779,112.33 73.5,112.5 Z"/></g>
<g><path style="opacity:1" fill="#784723" d="M 240.5,106.5 C 243.516,111.032 245.85,115.865 247.5,121C 244.767,128.632 241.101,135.798 236.5,142.5C 234.614,141.639 232.78,140.639 231,139.5C 230.5,130.84 230.334,122.173 230.5,113.5C 232.451,115.48 233.951,117.813 235,120.5C 234.47,116.563 234.803,113.563 236,111.5C 237.724,113.845 239.557,114.345 241.5,113C 239.595,113.13 237.928,112.13 236.5,110C 237.337,108.989 237.67,107.822 237.5,106.5C 238.5,106.5 239.5,106.5 240.5,106.5 Z"/></g>
<g><path style="opacity:1" fill="#7d4b21" d="M 206.5,110.5 C 207.5,110.5 208.5,110.5 209.5,110.5C 210.919,111.451 212.585,111.784 214.5,111.5C 210.34,114.578 205.673,116.578 200.5,117.5C 199.833,121.5 201.5,123.167 205.5,122.5C 205.215,120.712 205.548,119.045 206.5,117.5C 209.939,115.697 213.439,114.03 217,112.5C 218.301,113.098 219.135,114.098 219.5,115.5C 216.645,118.52 213.979,121.687 211.5,125C 211.957,125.414 212.291,125.914 212.5,126.5C 211.423,128.729 210.756,131.063 210.5,133.5C 208.936,136.274 207.103,138.941 205,141.5C 203.841,138.507 201.675,136.84 198.5,136.5C 196.621,135.659 194.621,135.325 192.5,135.5C 194.644,132.878 195.977,129.878 196.5,126.5C 197.694,122.611 197.528,118.611 196,114.5C 193.272,112.274 191.105,109.607 189.5,106.5C 189.47,105.503 189.97,104.836 191,104.5C 194.994,107.158 198.994,109.825 203,112.5C 204.459,112.192 205.626,111.525 206.5,110.5 Z"/></g>
<g><path style="opacity:1" fill="#77451f" d="M 57.5,107.5 C 58.5,107.5 59.5,107.5 60.5,107.5C 60.5,107.833 60.5,108.167 60.5,108.5C 63.1251,109.441 63.1251,110.607 60.5,112C 59.2068,112.49 57.8734,112.657 56.5,112.5C 56.281,113.675 56.6143,114.675 57.5,115.5C 58.914,114.376 60.414,113.376 62,112.5C 62.4922,113.549 62.3256,114.549 61.5,115.5C 62.4415,115.489 63.1081,115.989 63.5,117C 61.4334,123.053 59.1001,128.886 56.5,134.5C 53.6985,130.562 51.6985,126.229 50.5,121.5C 51.6985,116.771 53.6985,112.438 56.5,108.5C 57.1667,108.5 57.5,108.167 57.5,107.5 Z"/></g>
<g><path style="opacity:1" fill="#7d4d2a" d="M 228.5,113.5 C 228.295,121.857 228.628,130.19 229.5,138.5C 228.69,143.127 227.023,147.46 224.5,151.5C 223.833,152.833 223.167,152.833 222.5,151.5C 226.86,146.753 226.527,143.586 221.5,142C 217.442,139.642 213.775,136.808 210.5,133.5C 210.756,131.063 211.423,128.729 212.5,126.5C 212.291,125.914 211.957,125.414 211.5,125C 213.979,121.687 216.645,118.52 219.5,115.5C 219.135,114.098 218.301,113.098 217,112.5C 213.439,114.03 209.939,115.697 206.5,117.5C 205.548,119.045 205.215,120.712 205.5,122.5C 201.5,123.167 199.833,121.5 200.5,117.5C 205.673,116.578 210.34,114.578 214.5,111.5C 217.171,110.702 220.004,110.035 223,109.5C 223.95,110.022 224.784,110.689 225.5,111.5C 227.396,110.361 228.396,111.027 228.5,113.5 Z"/></g>
<g><path style="opacity:1" fill="#855734" d="M 60.5,108.5 C 63.4343,109.289 65.2676,111.289 66,114.5C 66.6667,113.167 67.3333,113.167 68,114.5C 68.1909,116.708 68.6909,118.708 69.5,120.5C 69.1734,125.214 69.5067,129.88 70.5,134.5C 75.4703,131.525 79.8037,127.858 83.5,123.5C 83.1373,122.817 82.8039,122.15 82.5,121.5C 82.5,121.167 82.5,120.833 82.5,120.5C 84.8176,122.317 86.9843,124.317 89,126.5C 91,125.833 93,125.167 95,124.5C 96.3102,125.13 97.1435,126.13 97.5,127.5C 97.4142,128.496 97.7476,129.329 98.5,130C 94.8618,130.452 92.5284,132.286 91.5,135.5C 84.5812,138.237 78.5812,142.404 73.5,148C 75.6638,151.982 78.3305,155.482 81.5,158.5C 78.1501,158.665 74.8168,158.498 71.5,158C 66.6849,150.854 62.0183,143.687 57.5,136.5C 57.1667,135.833 56.8333,135.167 56.5,134.5C 59.1001,128.886 61.4334,123.053 63.5,117C 63.1081,115.989 62.4415,115.489 61.5,115.5C 62.3256,114.549 62.4922,113.549 62,112.5C 60.414,113.376 58.914,114.376 57.5,115.5C 56.6143,114.675 56.281,113.675 56.5,112.5C 57.8734,112.657 59.2068,112.49 60.5,112C 63.1251,110.607 63.1251,109.441 60.5,108.5 Z"/></g>
<g><path style="opacity:1" fill="#fee540" d="M 161.5,124.5 C 163.246,128.327 165.246,131.993 167.5,135.5C 166.876,135.917 166.543,136.584 166.5,137.5C 167.468,140.944 168.635,144.278 170,147.5C 172.592,151.193 174.592,155.193 176,159.5C 179.051,161.05 181.218,163.383 182.5,166.5C 180.321,166.16 178.488,165.16 177,163.5C 175.03,160.032 172.864,156.699 170.5,153.5C 169.473,154.791 168.473,154.791 167.5,153.5C 166.863,150.544 166.363,147.544 166,144.5C 159.225,134.867 157.058,124.2 159.5,112.5C 160.227,116.541 160.894,120.541 161.5,124.5 Z"/></g>
<g><path style="opacity:1" fill="#926229" d="M 104.5,126.5 C 108.249,127.439 112.083,128.439 116,129.5C 116.838,132.481 116.005,134.814 113.5,136.5C 111.772,135.621 109.939,134.954 108,134.5C 105.725,134.278 104.559,135.278 104.5,137.5C 103.469,136.645 102.303,135.978 101,135.5C 98.4192,136.417 96.0859,137.751 94,139.5C 92.9054,138.307 92.072,136.973 91.5,135.5C 92.5284,132.286 94.8618,130.452 98.5,130C 97.7476,129.329 97.4142,128.496 97.5,127.5C 99.7638,126.781 102.097,126.448 104.5,126.5 Z"/></g>
<g><path style="opacity:1" fill="#4d3823" d="M 125.5,138.5 C 125.5,139.167 125.167,139.5 124.5,139.5C 120.294,140.055 116.627,139.055 113.5,136.5C 116.005,134.814 116.838,132.481 116,129.5C 112.083,128.439 108.249,127.439 104.5,126.5C 105.833,126.5 107.167,126.5 108.5,126.5C 116.834,124.02 120.5,127.187 119.5,136C 119.355,136.772 119.022,137.439 118.5,138C 120.81,138.497 123.143,138.663 125.5,138.5 Z"/></g>
<g><path style="opacity:1" fill="#b68424" d="M 113.5,136.5 C 116.627,139.055 120.294,140.055 124.5,139.5C 124.25,141.674 123.25,143.341 121.5,144.5C 116.814,144.881 112.481,143.881 108.5,141.5C 106.861,140.527 105.527,139.194 104.5,137.5C 104.559,135.278 105.725,134.278 108,134.5C 109.939,134.954 111.772,135.621 113.5,136.5 Z"/></g>
<g><path style="opacity:1" fill="#b5801a" d="M 192.5,135.5 C 194.621,135.325 196.621,135.659 198.5,136.5C 197.527,139.135 195.86,141.135 193.5,142.5C 188.607,144.798 183.607,146.464 178.5,147.5C 176.412,145.664 175.079,143.331 174.5,140.5C 181.403,141.678 187.403,140.011 192.5,135.5 Z"/></g>
<g><path style="opacity:1" fill="#fdec72" d="M 223.5,168.5 C 226.438,166.066 229.271,163.399 232,160.5C 232.528,159.184 232.028,158.517 230.5,158.5C 237.324,148.862 244.157,139.196 251,129.5C 250.831,132.519 250.164,135.519 249,138.5C 244.667,146.5 240.333,154.5 236,162.5C 232.991,166.893 228.825,168.893 223.5,168.5 Z"/></g>
<g><path style="opacity:1" fill="#f8da21" d="M 131.5,145.5 C 133.078,141.289 133.578,136.956 133,132.5C 128.626,139.616 124.626,146.949 121,154.5C 119.27,156.402 117.437,158.069 115.5,159.5C 113.199,160.06 110.866,160.56 108.5,161C 96.8381,161.5 85.1714,161.667 73.5,161.5C 69.3552,159.877 65.8552,157.211 63,153.5C 59.9108,148.594 57.0774,143.594 54.5,138.5C 55.2223,137.449 56.2223,136.782 57.5,136.5C 62.0183,143.687 66.6849,150.854 71.5,158C 74.8168,158.498 78.1501,158.665 81.5,158.5C 81.8333,158.5 82.1667,158.5 82.5,158.5C 92.5056,158.666 102.506,158.5 112.5,158C 115.846,156.149 117.846,153.316 118.5,149.5C 120.25,148.341 121.25,146.674 121.5,144.5C 123.25,143.341 124.25,141.674 124.5,139.5C 125.167,139.5 125.5,139.167 125.5,138.5C 127.42,135.661 129.087,132.661 130.5,129.5C 131.5,128.167 132.5,126.833 133.5,125.5C 133.461,126.756 133.961,127.756 135,128.5C 135.667,127.167 136.333,125.833 137,124.5C 137.173,120.459 137.673,116.459 138.5,112.5C 138.833,114.667 139.167,116.833 139.5,119C 140.504,129.145 137.837,137.979 131.5,145.5 Z"/></g>
<g><path style="opacity:0.996" fill="#f89e1b" d="M 147.5,124.5 C 148.5,125.833 149.5,125.833 150.5,124.5C 155.668,132.164 160.335,140.164 164.5,148.5C 162.516,145.836 159.849,144.169 156.5,143.5C 155.833,143.5 155.167,143.5 154.5,143.5C 150.5,142.167 146.5,142.167 142.5,143.5C 141.209,143.263 140.209,143.596 139.5,144.5C 136.865,145.473 134.865,147.14 133.5,149.5C 137.917,140.997 142.583,132.664 147.5,124.5 Z"/></g>
<g><path style="opacity:1" fill="#fdd10f" d="M 142.5,135.5 C 146.833,135.5 151.167,135.5 155.5,135.5C 156.725,136.937 157.725,138.604 158.5,140.5C 157.833,140.833 157.167,141.167 156.5,141.5C 151.147,140.215 145.813,140.215 140.5,141.5C 140.167,141.167 139.833,140.833 139.5,140.5C 140.763,138.971 141.763,137.305 142.5,135.5 Z"/></g>
<g><path style="opacity:1" fill="#fce87b" d="M 155.5,135.5 C 151.167,135.5 146.833,135.5 142.5,135.5C 147.02,124.88 151.353,124.88 155.5,135.5 Z"/></g>
<g><path style="opacity:1" fill="#fadc20" d="M 164.5,124.5 C 165.737,125.965 166.737,127.632 167.5,129.5C 169.597,133.372 171.931,137.039 174.5,140.5C 175.079,143.331 176.412,145.664 178.5,147.5C 179.11,149.434 180.11,151.101 181.5,152.5C 182.578,155.908 184.911,157.908 188.5,158.5C 199.167,159.167 209.833,159.833 220.5,160.5C 219.833,160.5 219.5,160.833 219.5,161.5C 209.167,161.5 198.833,161.5 188.5,161.5C 185.074,160.535 181.907,158.868 179,156.5C 174.646,149.793 170.813,142.793 167.5,135.5C 165.246,131.993 163.246,128.327 161.5,124.5C 162.5,123.167 163.5,123.167 164.5,124.5 Z"/></g>
<g><path style="opacity:1" fill="#fdec76" d="M 54.5,138.5 C 57.0774,143.594 59.9108,148.594 63,153.5C 65.8552,157.211 69.3552,159.877 73.5,161.5C 72.325,161.281 71.325,161.614 70.5,162.5C 72.8272,164.161 74.8272,166.161 76.5,168.5C 71.8381,169.196 67.6714,168.196 64,165.5C 58.065,155.295 52.3983,144.962 47,134.5C 46.3333,132.833 46.3333,131.167 47,129.5C 49.5184,132.571 52.0184,135.571 54.5,138.5 Z"/></g>
<g><path style="opacity:1" fill="#caaa70" d="M 108.5,141.5 C 112.481,143.881 116.814,144.881 121.5,144.5C 121.25,146.674 120.25,148.341 118.5,149.5C 112.2,150.319 106.533,148.985 101.5,145.5C 103.85,144.139 106.184,142.806 108.5,141.5 Z"/></g>
<g><path style="opacity:1" fill="#fbf7e9" d="M 156.5,143.5 C 159.849,144.169 162.516,145.836 164.5,148.5C 164.75,150.674 165.75,152.341 167.5,153.5C 168.242,155.98 169.242,158.313 170.5,160.5C 170.5,161.167 170.167,161.5 169.5,161.5C 166.871,158.369 164.038,155.369 161,152.5C 158.962,149.757 157.462,146.757 156.5,143.5 Z"/></g>
<g><path style="opacity:1" fill="#c4a36b" d="M 193.5,142.5 C 194.916,144.179 196.25,145.846 197.5,147.5C 195.77,148.026 194.436,149.026 193.5,150.5C 189.295,150.717 185.295,151.383 181.5,152.5C 180.11,151.101 179.11,149.434 178.5,147.5C 183.607,146.464 188.607,144.798 193.5,142.5 Z"/></g>
<g><path style="opacity:1" fill="#a67f5d" d="M 91.5,135.5 C 92.072,136.973 92.9054,138.307 94,139.5C 96.0859,137.751 98.4192,136.417 101,135.5C 102.303,135.978 103.469,136.645 104.5,137.5C 105.527,139.194 106.861,140.527 108.5,141.5C 106.184,142.806 103.85,144.139 101.5,145.5C 94.3381,148.669 88.0047,153.002 82.5,158.5C 82.1667,158.5 81.8333,158.5 81.5,158.5C 78.3305,155.482 75.6638,151.982 73.5,148C 78.5812,142.404 84.5812,138.237 91.5,135.5 Z"/></g>
<g><path style="opacity:1" fill="#fdfab8" d="M 154.5,143.5 C 156.153,146.807 157.82,150.14 159.5,153.5C 153.347,154.653 147.014,154.82 140.5,154C 139.584,153.722 138.918,153.222 138.5,152.5C 140.091,149.648 141.424,146.648 142.5,143.5C 146.5,142.167 150.5,142.167 154.5,143.5 Z"/></g>
<g><path style="opacity:1" fill="#9a6f4b" d="M 228.5,113.5 C 229.167,113.5 229.833,113.5 230.5,113.5C 230.334,122.173 230.5,130.84 231,139.5C 232.78,140.639 234.614,141.639 236.5,142.5C 233.887,147.557 230.887,152.39 227.5,157C 223.94,158.237 220.273,158.737 216.5,158.5C 217.81,156.852 219.143,155.186 220.5,153.5C 215.975,149.808 211.308,146.308 206.5,143C 205.5,142.333 204.5,142.333 203.5,143C 201.649,144.752 199.649,146.252 197.5,147.5C 196.25,145.846 194.916,144.179 193.5,142.5C 195.86,141.135 197.527,139.135 198.5,136.5C 201.675,136.84 203.841,138.507 205,141.5C 207.103,138.941 208.936,136.274 210.5,133.5C 213.775,136.808 217.442,139.642 221.5,142C 226.527,143.586 226.86,146.753 222.5,151.5C 223.167,152.833 223.833,152.833 224.5,151.5C 227.023,147.46 228.69,143.127 229.5,138.5C 228.628,130.19 228.295,121.857 228.5,113.5 Z"/></g>
<g><path style="opacity:1" fill="#b18e71" d="M 216.5,158.5 C 210.167,158.5 203.833,158.5 197.5,158.5C 199.631,157.686 201.964,157.186 204.5,157C 200.778,154.81 197.111,152.644 193.5,150.5C 194.436,149.026 195.77,148.026 197.5,147.5C 199.649,146.252 201.649,144.752 203.5,143C 204.5,142.333 205.5,142.333 206.5,143C 211.308,146.308 215.975,149.808 220.5,153.5C 219.143,155.186 217.81,156.852 216.5,158.5 Z"/></g>
<g><path style="opacity:1" fill="#faf8eb" d="M 139.5,144.5 C 140.043,144.56 140.376,144.893 140.5,145.5C 138.178,150.795 134.845,154.462 130.5,156.5C 131.773,154.287 132.773,151.954 133.5,149.5C 134.865,147.14 136.865,145.473 139.5,144.5 Z"/></g>
<g><path style="opacity:1" fill="#d2b69a" d="M 193.5,150.5 C 197.111,152.644 200.778,154.81 204.5,157C 201.964,157.186 199.631,157.686 197.5,158.5C 194.5,158.5 191.5,158.5 188.5,158.5C 184.911,157.908 182.578,155.908 181.5,152.5C 185.295,151.383 189.295,150.717 193.5,150.5 Z"/></g>
<g><path style="opacity:1" fill="#f79515" d="M 37.5,116.5 C 37.3354,119.518 37.502,122.518 38,125.5C 46.1217,140.247 54.6217,154.747 63.5,169C 81.7428,170.64 100.076,170.973 118.5,170C 121.358,168.306 123.691,166.139 125.5,163.5C 125.107,165.284 124.441,166.95 123.5,168.5C 122.5,168.833 121.833,169.5 121.5,170.5C 120.167,171.167 118.833,171.833 117.5,172.5C 102.99,172.171 88.6569,172.504 74.5,173.5C 73.8333,173.5 73.1667,173.5 72.5,173.5C 66.9302,174.584 62.4302,172.917 59,168.5C 51.2523,154.669 43.2523,141.002 35,127.5C 33.9492,123.304 34.7825,119.637 37.5,116.5 Z"/></g>
<g><path style="opacity:1" fill="#c7a98b" d="M 101.5,145.5 C 106.533,148.985 112.2,150.319 118.5,149.5C 117.846,153.316 115.846,156.149 112.5,158C 102.506,158.5 92.5056,158.666 82.5,158.5C 88.0047,153.002 94.3381,148.669 101.5,145.5 Z"/></g>
<g><path style="opacity:1" fill="#fdf8ae" d="M 138.5,152.5 C 138.918,153.222 139.584,153.722 140.5,154C 147.014,154.82 153.347,154.653 159.5,153.5C 161.812,155.146 163.812,157.146 165.5,159.5C 157.179,164.869 148.179,166.036 138.5,163C 136.422,161.923 134.422,160.757 132.5,159.5C 134.273,156.94 136.273,154.607 138.5,152.5 Z"/></g>
<g><path style="opacity:1" fill="#fdf29b" d="M 167.5,135.5 C 170.813,142.793 174.646,149.793 179,156.5C 181.907,158.868 185.074,160.535 188.5,161.5C 187.448,161.351 186.448,161.517 185.5,162C 186.743,163.154 187.743,164.488 188.5,166C 199.093,167.595 209.76,167.928 220.5,167C 222.5,165.333 224.5,163.667 226.5,162C 224.19,161.503 221.857,161.337 219.5,161.5C 219.5,160.833 219.833,160.5 220.5,160.5C 224.085,160.848 227.418,160.181 230.5,158.5C 232.028,158.517 232.528,159.184 232,160.5C 229.271,163.399 226.438,166.066 223.5,168.5C 209.711,169.003 196.044,168.336 182.5,166.5C 181.218,163.383 179.051,161.05 176,159.5C 174.592,155.193 172.592,151.193 170,147.5C 168.635,144.278 167.468,140.944 166.5,137.5C 166.543,136.584 166.876,135.917 167.5,135.5 Z"/></g>
<g><path style="opacity:0.992" fill="#f5961c" d="M 261.5,118.5 C 263.385,120.795 263.885,123.462 263,126.5C 254.713,142.248 245.546,157.415 235.5,172C 232.274,173.199 228.941,173.699 225.5,173.5C 222.57,172.701 219.57,172.368 216.5,172.5C 207.5,172.5 198.5,172.5 189.5,172.5C 186.5,172.5 183.5,172.5 180.5,172.5C 176.938,170.693 174.272,168.027 172.5,164.5C 171.766,163.292 171.433,161.959 171.5,160.5C 173.554,164.058 176.22,167.225 179.5,170C 196.833,170.667 214.167,170.667 231.5,170C 232.833,169.333 234.167,168.667 235.5,168C 243.126,155.249 250.626,142.415 258,129.5C 260.332,126.178 261.498,122.511 261.5,118.5 Z"/></g>
<g><path style="opacity:1" fill="#feed76" d="M 131.5,145.5 C 130.345,149.144 128.678,152.477 126.5,155.5C 123.745,159.434 120.745,163.267 117.5,167C 114.854,167.497 112.187,167.664 109.5,167.5C 112.748,165.694 115.414,163.194 117.5,160C 116.906,159.536 116.239,159.369 115.5,159.5C 117.437,158.069 119.27,156.402 121,154.5C 124.626,146.949 128.626,139.616 133,132.5C 133.578,136.956 133.078,141.289 131.5,145.5 Z"/></g>
<g><path style="opacity:1" fill="#f9f19c" d="M 154.5,143.5 C 155.167,143.5 155.833,143.5 156.5,143.5C 157.462,146.757 158.962,149.757 161,152.5C 164.038,155.369 166.871,158.369 169.5,161.5C 169.5,162.5 169.5,163.5 169.5,164.5C 162.085,168.615 154.085,170.115 145.5,169C 141.092,168.295 136.759,167.295 132.5,166C 128.517,163.534 128.517,161.368 132.5,159.5C 134.422,160.757 136.422,161.923 138.5,163C 148.179,166.036 157.179,164.869 165.5,159.5C 163.812,157.146 161.812,155.146 159.5,153.5C 157.82,150.14 156.153,146.807 154.5,143.5 Z"/></g>
<g><path style="opacity:1" fill="#fdf7b8" d="M 115.5,159.5 C 116.239,159.369 116.906,159.536 117.5,160C 115.414,163.194 112.748,165.694 109.5,167.5C 98.5267,168.38 87.5267,168.713 76.5,168.5C 74.8272,166.161 72.8272,164.161 70.5,162.5C 71.325,161.614 72.325,161.281 73.5,161.5C 85.1714,161.667 96.8381,161.5 108.5,161C 110.866,160.56 113.199,160.06 115.5,159.5 Z"/></g>
<g><path style="opacity:1" fill="#fdfad9" d="M 75.5,163.5 C 86.6591,162.341 97.9924,162.174 109.5,163C 107.004,164.08 104.67,165.414 102.5,167C 95.5,167.667 88.5,167.667 81.5,167C 79.5952,165.579 77.5952,164.412 75.5,163.5 Z"/></g>
<g><path style="opacity:1" fill="#fdf9ce" d="M 188.5,161.5 C 198.833,161.5 209.167,161.5 219.5,161.5C 221.857,161.337 224.19,161.503 226.5,162C 224.5,163.667 222.5,165.333 220.5,167C 209.76,167.928 199.093,167.595 188.5,166C 187.743,164.488 186.743,163.154 185.5,162C 186.448,161.517 187.448,161.351 188.5,161.5 Z"/></g>
<g><path style="opacity:1" fill="#fbef92" d="M 139.5,144.5 C 140.209,143.596 141.209,143.263 142.5,143.5C 141.424,146.648 140.091,149.648 138.5,152.5C 136.273,154.607 134.273,156.94 132.5,159.5C 128.517,161.368 128.517,163.534 132.5,166C 136.759,167.295 141.092,168.295 145.5,169C 154.085,170.115 162.085,168.615 169.5,164.5C 169.5,163.5 169.5,162.5 169.5,161.5C 170.167,161.5 170.5,161.167 170.5,160.5C 170.833,160.5 171.167,160.5 171.5,160.5C 171.433,161.959 171.766,163.292 172.5,164.5C 170.027,166.143 168.027,168.31 166.5,171C 157.807,174.807 148.807,175.474 139.5,173C 134.819,170.962 130.152,169.129 125.5,167.5C 125.646,172.137 124.979,172.47 123.5,168.5C 124.441,166.95 125.107,165.284 125.5,163.5C 126.985,161.066 128.652,158.733 130.5,156.5C 134.845,154.462 138.178,150.795 140.5,145.5C 140.376,144.893 140.043,144.56 139.5,144.5 Z"/></g>
<g><path style="opacity:1" fill="#f7e480" d="M 172.5,164.5 C 174.272,168.027 176.938,170.693 180.5,172.5C 179.766,173.708 179.433,175.041 179.5,176.5C 176.532,176.626 174.532,178.126 173.5,181C 171.548,181.366 169.882,182.199 168.5,183.5C 170.609,179.447 172.609,175.28 174.5,171C 173.368,169.209 172.368,169.375 171.5,171.5C 168.314,172.597 165.314,173.93 162.5,175.5C 156.61,177.232 150.61,177.732 144.5,177C 139.7,175.431 135.034,173.597 130.5,171.5C 126.495,167.487 125.495,168.487 127.5,174.5C 124.487,174.419 122.487,173.086 121.5,170.5C 121.833,169.5 122.5,168.833 123.5,168.5C 124.979,172.47 125.646,172.137 125.5,167.5C 130.152,169.129 134.819,170.962 139.5,173C 148.807,175.474 157.807,174.807 166.5,171C 168.027,168.31 170.027,166.143 172.5,164.5 Z"/></g>
<g><path style="opacity:0.901" fill="#e4f2f9" d="M 72.5,173.5 C 73.1667,173.5 73.8333,173.5 74.5,173.5C 75.5,173.5 76.5,173.5 77.5,173.5C 74.3941,176.783 71.3941,180.283 68.5,184C 70.4174,183.973 72.084,183.139 73.5,181.5C 73.8333,181.833 74.1667,182.167 74.5,182.5C 71.6245,187.455 71.9579,188.122 75.5,184.5C 76.2621,185.628 76.9288,186.795 77.5,188C 76.536,189.725 75.8693,191.559 75.5,193.5C 73.364,191.188 71.364,188.688 69.5,186C 68.552,185.517 67.552,185.351 66.5,185.5C 66.3645,188.551 66.6978,191.551 67.5,194.5C 65.6093,196.117 64.276,198.117 63.5,200.5C 63.5195,201.726 63.8529,202.726 64.5,203.5C 65.1667,204.833 65.8333,206.167 66.5,207.5C 65.8826,207.611 65.3826,207.944 65,208.5C 64.6667,210.5 64.3333,212.5 64,214.5C 63.6667,211.5 63.3333,208.5 63,205.5C 62,206.167 61,206.833 60,207.5C 57.4674,204.193 58.3008,202.527 62.5,202.5C 62.7692,200.571 62.2692,198.905 61,197.5C 57.9043,202.028 55.0709,206.695 52.5,211.5C 51.6236,211.369 50.9569,211.702 50.5,212.5C 45.1568,223.888 42.8235,235.888 43.5,248.5C 43.5,250.167 43.5,251.833 43.5,253.5C 39.4281,242.249 39.5948,230.916 44,219.5C 50.9205,202.446 60.4205,187.113 72.5,173.5 Z"/></g>
<g><path style="opacity:1" fill="#f4f1ef" d="M 130.5,171.5 C 138.64,178.115 147.974,180.282 158.5,178C 160.066,177.392 161.4,176.558 162.5,175.5C 165.314,173.93 168.314,172.597 171.5,171.5C 170.291,176.239 167.791,180.239 164,183.5C 163.506,185.134 163.34,186.801 163.5,188.5C 156.59,193.478 148.923,194.811 140.5,192.5C 139.833,191.833 139.167,191.167 138.5,190.5C 135.673,184.309 132.339,178.309 128.5,172.5C 128.957,171.702 129.624,171.369 130.5,171.5 Z"/></g>
<g><path style="opacity:1" fill="#94563e" d="M 130.5,171.5 C 135.034,173.597 139.7,175.431 144.5,177C 150.61,177.732 156.61,177.232 162.5,175.5C 161.4,176.558 160.066,177.392 158.5,178C 147.974,180.282 138.64,178.115 130.5,171.5 Z"/></g>
<g><path style="opacity:0.999" fill="#dff0f7" d="M 216.5,172.5 C 219.57,172.368 222.57,172.701 225.5,173.5C 227.808,176.815 230.141,180.149 232.5,183.5C 229.759,185.975 227.759,188.975 226.5,192.5C 223.916,195.252 220.916,197.419 217.5,199C 212.648,199.815 207.981,199.648 203.5,198.5C 205.828,197.264 206.994,195.264 207,192.5C 208.011,191.663 209.178,191.33 210.5,191.5C 209.462,187.205 209.462,182.871 210.5,178.5C 211.967,175.966 213.967,173.966 216.5,172.5 Z"/></g>
<g><path style="opacity:1" fill="#f0c62b" d="M 89.5,173.5 C 95.1764,173.334 100.843,173.501 106.5,174C 110.281,178.78 114.948,182.447 120.5,185C 121.252,185.671 121.586,186.504 121.5,187.5C 117.442,187.428 113.942,186.095 111,183.5C 109.338,183.388 108.171,184.054 107.5,185.5C 108.666,188.503 110.333,191.17 112.5,193.5C 116.758,195.132 121.092,196.466 125.5,197.5C 125.183,200.546 126.516,202.213 129.5,202.5C 128.796,204.344 127.463,204.844 125.5,204C 125.833,203.667 126.167,203.333 126.5,203C 124.52,201.175 122.187,200.341 119.5,200.5C 119.719,199.325 119.386,198.325 118.5,197.5C 117.15,198.95 115.484,199.617 113.5,199.5C 112.027,197.605 110.36,195.939 108.5,194.5C 107.594,193.035 106.261,192.035 104.5,191.5C 103.614,190.675 103.281,189.675 103.5,188.5C 102.5,188.5 101.5,188.5 100.5,188.5C 100.649,187.448 100.483,186.448 100,185.5C 97.5596,184.88 95.0596,184.88 92.5,185.5C 90.3855,181.888 89.3855,177.888 89.5,173.5 Z"/></g>
<g><path style="opacity:1" fill="#f8d855" d="M 121.5,170.5 C 122.487,173.086 124.487,174.419 127.5,174.5C 129.417,179.931 132.083,184.931 135.5,189.5C 133.801,189.66 132.134,189.494 130.5,189C 126.859,186.197 122.859,184.03 118.5,182.5C 116.924,179.512 114.591,177.346 111.5,176C 110.833,175.333 110.167,174.667 109.5,174C 112.365,173.817 115.031,173.317 117.5,172.5C 118.833,171.833 120.167,171.167 121.5,170.5 Z"/></g>
<g><path style="opacity:1" fill="#60281e" d="M 130.5,171.5 C 129.624,171.369 128.957,171.702 128.5,172.5C 132.339,178.309 135.673,184.309 138.5,190.5C 137.391,190.443 136.391,190.11 135.5,189.5C 132.083,184.931 129.417,179.931 127.5,174.5C 125.495,168.487 126.495,167.487 130.5,171.5 Z"/></g>
<g><path style="opacity:1" fill="#642b21" d="M 168.5,183.5 C 167.061,185.36 165.395,187.027 163.5,188.5C 163.34,186.801 163.506,185.134 164,183.5C 167.791,180.239 170.291,176.239 171.5,171.5C 172.368,169.375 173.368,169.209 174.5,171C 172.609,175.28 170.609,179.447 168.5,183.5 Z"/></g>
<g><path style="opacity:1" fill="#f5c320" d="M 189.5,172.5 C 198.5,172.5 207.5,172.5 216.5,172.5C 213.967,173.966 211.967,175.966 210.5,178.5C 206.965,178.557 204.632,180.223 203.5,183.5C 202.311,184.429 200.978,184.762 199.5,184.5C 199.33,185.822 199.663,186.989 200.5,188C 196.745,190.404 192.745,192.404 188.5,194C 187.747,198.423 186.414,198.589 184.5,194.5C 186.557,193.009 188.557,191.342 190.5,189.5C 189.667,189.167 188.833,188.833 188,188.5C 184.219,190.107 180.719,192.274 177.5,195C 173.793,195.737 170.127,196.571 166.5,197.5C 166.5,196.833 166.5,196.167 166.5,195.5C 174.156,194.009 181.156,190.843 187.5,186C 191.322,182.012 195.322,178.179 199.5,174.5C 197.257,173.526 194.924,173.192 192.5,173.5C 191.209,173.737 190.209,173.404 189.5,172.5 Z"/></g>
<g><path style="opacity:1" fill="#f4ce49" d="M 180.5,172.5 C 183.5,172.5 186.5,172.5 189.5,172.5C 190.209,173.404 191.209,173.737 192.5,173.5C 186.864,178.978 180.864,183.978 174.5,188.5C 168.581,190.864 162.581,192.697 156.5,194C 157.5,194.333 158.5,194.667 159.5,195C 152.766,195.829 146.099,195.496 139.5,194C 140.056,193.617 140.389,193.117 140.5,192.5C 148.923,194.811 156.59,193.478 163.5,188.5C 165.395,187.027 167.061,185.36 168.5,183.5C 169.882,182.199 171.548,181.366 173.5,181C 174.532,178.126 176.532,176.626 179.5,176.5C 179.433,175.041 179.766,173.708 180.5,172.5 Z"/></g>
<g><path style="opacity:0.999" fill="#dceff8" d="M 77.5,173.5 C 80.1667,173.5 82.8333,173.5 85.5,173.5C 85.8212,175.048 86.8212,175.715 88.5,175.5C 88.7281,182.273 90.8948,188.273 95,193.5C 95.3153,195.586 95.8153,197.586 96.5,199.5C 88.6705,201.86 81.6705,200.526 75.5,195.5C 75.5,194.833 75.5,194.167 75.5,193.5C 75.8693,191.559 76.536,189.725 77.5,188C 76.9288,186.795 76.2621,185.628 75.5,184.5C 71.9579,188.122 71.6245,187.455 74.5,182.5C 74.1667,182.167 73.8333,181.833 73.5,181.5C 72.084,183.139 70.4174,183.973 68.5,184C 71.3941,180.283 74.3941,176.783 77.5,173.5 Z"/></g>
<g><path style="opacity:1" fill="#60513d" d="M 232.5,183.5 C 234.741,184.3 235.741,185.966 235.5,188.5C 233.926,190.102 233.259,192.102 233.5,194.5C 232.596,193.791 232.263,192.791 232.5,191.5C 230.379,191.325 228.379,191.659 226.5,192.5C 227.759,188.975 229.759,185.975 232.5,183.5 Z"/></g>
<g><path style="opacity:1" fill="#8e5e1d" d="M 108.5,194.5 C 105.529,193.933 102.695,192.933 100,191.5C 100.464,193.193 101.297,194.86 102.5,196.5C 101.71,197.401 100.71,198.068 99.5,198.5C 98.7383,194.131 96.405,190.964 92.5,189C 93.6843,187.855 93.6843,186.688 92.5,185.5C 95.0596,184.88 97.5596,184.88 100,185.5C 100.483,186.448 100.649,187.448 100.5,188.5C 101.5,188.5 102.5,188.5 103.5,188.5C 103.281,189.675 103.614,190.675 104.5,191.5C 106.261,192.035 107.594,193.035 108.5,194.5 Z"/></g>
<g><path style="opacity:1" fill="#f9cc35" d="M 74.5,173.5 C 88.6569,172.504 102.99,172.171 117.5,172.5C 115.031,173.317 112.365,173.817 109.5,174C 110.167,174.667 110.833,175.333 111.5,176C 114.591,177.346 116.924,179.512 118.5,182.5C 122.859,184.03 126.859,186.197 130.5,189C 132.134,189.494 133.801,189.66 135.5,189.5C 136.391,190.11 137.391,190.443 138.5,190.5C 139.167,191.167 139.833,191.833 140.5,192.5C 140.389,193.117 140.056,193.617 139.5,194C 146.099,195.496 152.766,195.829 159.5,195C 158.5,194.667 157.5,194.333 156.5,194C 162.581,192.697 168.581,190.864 174.5,188.5C 180.864,183.978 186.864,178.978 192.5,173.5C 194.924,173.192 197.257,173.526 199.5,174.5C 195.322,178.179 191.322,182.012 187.5,186C 181.156,190.843 174.156,194.009 166.5,195.5C 150.205,198.953 135.205,196.287 121.5,187.5C 121.586,186.504 121.252,185.671 120.5,185C 114.948,182.447 110.281,178.78 106.5,174C 100.843,173.501 95.1764,173.334 89.5,173.5C 88.1667,173.5 86.8333,173.5 85.5,173.5C 82.8333,173.5 80.1667,173.5 77.5,173.5C 76.5,173.5 75.5,173.5 74.5,173.5 Z"/></g>
<g><path style="opacity:1" fill="#b48e32" d="M 210.5,178.5 C 209.462,182.871 209.462,187.205 210.5,191.5C 209.178,191.33 208.011,191.663 207,192.5C 206.994,195.264 205.828,197.264 203.5,198.5C 205.573,195.384 205.906,192.05 204.5,188.5C 205.833,187.167 207.167,185.833 208.5,184.5C 208.192,183.692 207.692,183.025 207,182.5C 206.155,185.412 204.488,186.412 202,185.5C 201.383,186.449 201.549,187.282 202.5,188C 201.953,188.925 201.287,189.758 200.5,190.5C 197.651,191.1 195.318,192.433 193.5,194.5C 193.167,194.5 192.833,194.5 192.5,194.5C 192.565,194.062 192.399,193.728 192,193.5C 190.123,198.39 186.623,200.89 181.5,201C 180.748,200.329 180.414,199.496 180.5,198.5C 181.833,197.167 183.167,195.833 184.5,194.5C 186.414,198.589 187.747,198.423 188.5,194C 192.745,192.404 196.745,190.404 200.5,188C 199.663,186.989 199.33,185.822 199.5,184.5C 200.978,184.762 202.311,184.429 203.5,183.5C 204.632,180.223 206.965,178.557 210.5,178.5 Z"/></g>
<g><path style="opacity:1" fill="#d8be66" d="M 85.5,173.5 C 86.8333,173.5 88.1667,173.5 89.5,173.5C 89.3855,177.888 90.3855,181.888 92.5,185.5C 93.6843,186.688 93.6843,187.855 92.5,189C 96.405,190.964 98.7383,194.131 99.5,198.5C 98.609,199.11 97.609,199.443 96.5,199.5C 95.8153,197.586 95.3153,195.586 95,193.5C 90.8948,188.273 88.7281,182.273 88.5,175.5C 86.8212,175.715 85.8212,175.048 85.5,173.5 Z"/></g>
<g><path style="opacity:1" fill="#815118" d="M 203.5,198.5 C 200.053,197.353 196.72,196.02 193.5,194.5C 195.318,192.433 197.651,191.1 200.5,190.5C 201.287,189.758 201.953,188.925 202.5,188C 201.549,187.282 201.383,186.449 202,185.5C 204.488,186.412 206.155,185.412 207,182.5C 207.692,183.025 208.192,183.692 208.5,184.5C 207.167,185.833 205.833,187.167 204.5,188.5C 205.906,192.05 205.573,195.384 203.5,198.5 Z"/></g>
<g><path style="opacity:1" fill="#3d3326" d="M 75.5,193.5 C 75.5,194.167 75.5,194.833 75.5,195.5C 73.6536,195.222 72.3202,195.889 71.5,197.5C 73.415,199.071 74.415,201.071 74.5,203.5C 71.6391,203.658 68.9724,202.992 66.5,201.5C 65.2867,201.747 64.62,202.414 64.5,203.5C 63.8529,202.726 63.5195,201.726 63.5,200.5C 64.276,198.117 65.6093,196.117 67.5,194.5C 66.6978,191.551 66.3645,188.551 66.5,185.5C 67.552,185.351 68.552,185.517 69.5,186C 71.364,188.688 73.364,191.188 75.5,193.5 Z"/></g>
<g><path style="opacity:1" fill="#1e1a16" d="M 233.5,194.5 C 236.987,195.388 238.32,197.721 237.5,201.5C 236.194,204.139 234.194,206.139 231.5,207.5C 226.422,205.471 221.089,204.471 215.5,204.5C 211.426,204.218 207.426,203.552 203.5,202.5C 202.609,201.89 201.609,201.557 200.5,201.5C 198.727,200.108 196.727,198.941 194.5,198C 193.177,197.184 192.511,196.017 192.5,194.5C 192.833,194.5 193.167,194.5 193.5,194.5C 196.72,196.02 200.053,197.353 203.5,198.5C 207.981,199.648 212.648,199.815 217.5,199C 220.916,197.419 223.916,195.252 226.5,192.5C 228.379,191.659 230.379,191.325 232.5,191.5C 232.263,192.791 232.596,193.791 233.5,194.5 Z"/></g>
<g><path style="opacity:1" fill="#12100e" d="M 75.5,195.5 C 81.6705,200.526 88.6705,201.86 96.5,199.5C 97.609,199.443 98.609,199.11 99.5,198.5C 100.71,198.068 101.71,197.401 102.5,196.5C 104.239,195.566 105.905,195.566 107.5,196.5C 105.63,198.924 103.297,200.591 100.5,201.5C 99.391,201.557 98.391,201.89 97.5,202.5C 90.9754,204.371 84.3088,205.538 77.5,206C 76.0577,206.377 75.0577,207.21 74.5,208.5C 71.7212,208.721 69.0545,208.388 66.5,207.5C 65.8333,206.167 65.1667,204.833 64.5,203.5C 64.62,202.414 65.2867,201.747 66.5,201.5C 68.9724,202.992 71.6391,203.658 74.5,203.5C 74.415,201.071 73.415,199.071 71.5,197.5C 72.3202,195.889 73.6536,195.222 75.5,195.5 Z"/></g>
<g><path style="opacity:1" fill="#f1bf21" d="M 121.5,187.5 C 135.205,196.287 150.205,198.953 166.5,195.5C 166.5,196.167 166.5,196.833 166.5,197.5C 153.876,199.268 141.376,198.602 129,195.5C 128.5,195.833 128,196.167 127.5,196.5C 129.162,197.327 130.495,198.493 131.5,200C 137.285,201.303 143.118,202.47 149,203.5C 155.039,200.895 161.039,200.895 167,203.5C 170.983,201.897 175.15,201.23 179.5,201.5C 179.5,202.5 179.5,203.5 179.5,204.5C 178.833,204.5 178.167,204.5 177.5,204.5C 175.599,204.433 173.766,204.767 172,205.5C 171.05,204.978 170.216,204.311 169.5,203.5C 167.958,204.747 166.458,204.747 165,203.5C 164.333,204.833 163.333,205.833 162,206.5C 160.457,205.715 158.79,205.715 157,206.5C 155.093,204.416 153.427,204.416 152,206.5C 149,205.167 146,205.167 143,206.5C 142.692,205.692 142.192,205.025 141.5,204.5C 139.929,205.309 138.262,205.643 136.5,205.5C 136.5,204.833 136.167,204.5 135.5,204.5C 133.958,205.301 132.292,205.634 130.5,205.5C 130.737,204.209 130.404,203.209 129.5,202.5C 126.516,202.213 125.183,200.546 125.5,197.5C 121.092,196.466 116.758,195.132 112.5,193.5C 110.333,191.17 108.666,188.503 107.5,185.5C 108.171,184.054 109.338,183.388 111,183.5C 113.942,186.095 117.442,187.428 121.5,187.5 Z"/></g>
<g><path style="opacity:0.997" fill="#f0f9fd" d="M 66.5,207.5 C 66.6928,210.811 65.6928,213.478 63.5,215.5C 62.1266,215.343 60.7932,215.51 59.5,216C 56.7467,217.501 54.08,219.001 51.5,220.5C 54.9658,222.54 55.2991,225.04 52.5,228C 52.9602,229.301 53.2935,230.634 53.5,232C 51.3547,240.851 50.0214,249.684 49.5,258.5C 45.812,249.892 44.6453,240.892 46,231.5C 47.4748,224.576 49.6415,217.91 52.5,211.5C 55.0709,206.695 57.9043,202.028 61,197.5C 62.2692,198.905 62.7692,200.571 62.5,202.5C 58.3008,202.527 57.4674,204.193 60,207.5C 61,206.833 62,206.167 63,205.5C 63.3333,208.5 63.6667,211.5 64,214.5C 64.3333,212.5 64.6667,210.5 65,208.5C 65.3826,207.944 65.8826,207.611 66.5,207.5 Z"/></g>
<g><path style="opacity:0.879" fill="#e1f1f9" d="M 235.5,188.5 C 246.131,202.713 252.464,218.713 254.5,236.5C 254.185,246.427 251.685,255.76 247,264.5C 245.296,266.373 243.463,268.04 241.5,269.5C 240.292,268.766 238.959,268.433 237.5,268.5C 245.503,263.353 249.836,255.853 250.5,246C 250.492,244.293 250.158,242.793 249.5,241.5C 249.677,237.766 249.344,234.099 248.5,230.5C 247.324,219.828 243.658,210.161 237.5,201.5C 238.32,197.721 236.987,195.388 233.5,194.5C 233.259,192.102 233.926,190.102 235.5,188.5 Z"/></g>
<g><path style="opacity:1" fill="#f8bc0f" d="M 184.5,194.5 C 183.167,195.833 181.833,197.167 180.5,198.5C 179.596,199.209 179.263,200.209 179.5,201.5C 175.15,201.23 170.983,201.897 167,203.5C 161.039,200.895 155.039,200.895 149,203.5C 143.118,202.47 137.285,201.303 131.5,200C 130.495,198.493 129.162,197.327 127.5,196.5C 128,196.167 128.5,195.833 129,195.5C 141.376,198.602 153.876,199.268 166.5,197.5C 170.127,196.571 173.793,195.737 177.5,195C 180.719,192.274 184.219,190.107 188,188.5C 188.833,188.833 189.667,189.167 190.5,189.5C 188.557,191.342 186.557,193.009 184.5,194.5 Z"/></g>
<g><path style="opacity:1" fill="#90702d" d="M 129.5,202.5 C 130.404,203.209 130.737,204.209 130.5,205.5C 132.292,205.634 133.958,205.301 135.5,204.5C 135.585,205.995 134.919,206.995 133.5,207.5C 130.243,206.449 126.91,205.782 123.5,205.5C 123.5,204.167 123.5,202.833 123.5,201.5C 121.234,201.859 119.401,201.192 118,199.5C 116.53,201.877 115.03,201.877 113.5,199.5C 115.484,199.617 117.15,198.95 118.5,197.5C 119.386,198.325 119.719,199.325 119.5,200.5C 122.187,200.341 124.52,201.175 126.5,203C 126.167,203.333 125.833,203.667 125.5,204C 127.463,204.844 128.796,204.344 129.5,202.5 Z"/></g>
<g><path style="opacity:1" fill="#4a2606" d="M 108.5,194.5 C 110.36,195.939 112.027,197.605 113.5,199.5C 115.03,201.877 116.53,201.877 118,199.5C 119.401,201.192 121.234,201.859 123.5,201.5C 123.5,202.833 123.5,204.167 123.5,205.5C 121.621,205.393 121.288,205.893 122.5,207C 130.312,211.988 138.812,215.155 148,216.5C 155.52,215.327 162.687,212.993 169.5,209.5C 170.386,208.675 170.719,207.675 170.5,206.5C 173.152,206.59 175.485,205.924 177.5,204.5C 178.167,204.5 178.833,204.5 179.5,204.5C 180.55,204.905 180.55,205.571 179.5,206.5C 178.726,207.711 177.893,207.711 177,206.5C 175.167,209 173.333,211.5 171.5,214C 163.432,218.286 154.932,219.786 146,218.5C 145,219.167 144,219.833 143,220.5C 140.619,219.565 138.119,219.232 135.5,219.5C 134.508,219.328 133.842,219.662 133.5,220.5C 132.778,220.082 132.278,219.416 132,218.5C 131.586,218.957 131.086,219.291 130.5,219.5C 121.238,215.096 112.905,209.429 105.5,202.5C 104.311,201.571 102.978,201.238 101.5,201.5C 101.167,201.5 100.833,201.5 100.5,201.5C 103.297,200.591 105.63,198.924 107.5,196.5C 105.905,195.566 104.239,195.566 102.5,196.5C 101.297,194.86 100.464,193.193 100,191.5C 102.695,192.933 105.529,193.933 108.5,194.5 Z"/></g>
<g><path style="opacity:1" fill="#552d07" d="M 192.5,194.5 C 192.511,196.017 193.177,197.184 194.5,198C 196.727,198.941 198.727,200.108 200.5,201.5C 197.326,201.719 195.493,203.385 195,206.5C 194.617,205.944 194.117,205.611 193.5,205.5C 191.626,206.626 189.293,207.959 186.5,209.5C 185.52,210.981 184.353,212.315 183,213.5C 182.259,212.359 181.425,212.359 180.5,213.5C 176.481,218.733 171.314,220.733 165,219.5C 163.832,220.509 162.665,221.509 161.5,222.5C 154.955,222.417 148.455,222.417 142,222.5C 139.834,221.269 137.667,220.269 135.5,219.5C 138.119,219.232 140.619,219.565 143,220.5C 144,219.833 145,219.167 146,218.5C 154.932,219.786 163.432,218.286 171.5,214C 173.333,211.5 175.167,209 177,206.5C 177.893,207.711 178.726,207.711 179.5,206.5C 180.55,205.571 180.55,204.905 179.5,204.5C 179.5,203.5 179.5,202.5 179.5,201.5C 179.263,200.209 179.596,199.209 180.5,198.5C 180.414,199.496 180.748,200.329 181.5,201C 186.623,200.89 190.123,198.39 192,193.5C 192.399,193.728 192.565,194.062 192.5,194.5 Z"/></g>
<g><path style="opacity:1" fill="#3d1f05" d="M 135.5,204.5 C 136.167,204.5 136.5,204.833 136.5,205.5C 138.496,206.913 140.663,208.246 143,209.5C 145.753,207.929 148.586,207.596 151.5,208.5C 157.788,207.559 164.121,206.892 170.5,206.5C 170.719,207.675 170.386,208.675 169.5,209.5C 162.687,212.993 155.52,215.327 148,216.5C 138.812,215.155 130.312,211.988 122.5,207C 121.288,205.893 121.621,205.393 123.5,205.5C 126.91,205.782 130.243,206.449 133.5,207.5C 134.919,206.995 135.585,205.995 135.5,204.5 Z"/></g>
<g><path style="opacity:1" fill="#775622" d="M 177.5,204.5 C 175.485,205.924 173.152,206.59 170.5,206.5C 164.121,206.892 157.788,207.559 151.5,208.5C 148.586,207.596 145.753,207.929 143,209.5C 140.663,208.246 138.496,206.913 136.5,205.5C 138.262,205.643 139.929,205.309 141.5,204.5C 142.192,205.025 142.692,205.692 143,206.5C 146,205.167 149,205.167 152,206.5C 153.427,204.416 155.093,204.416 157,206.5C 158.79,205.715 160.457,205.715 162,206.5C 163.333,205.833 164.333,204.833 165,203.5C 166.458,204.747 167.958,204.747 169.5,203.5C 170.216,204.311 171.05,204.978 172,205.5C 173.766,204.767 175.599,204.433 177.5,204.5 Z"/></g>
<g><path style="opacity:1" fill="#cde7f6" d="M 97.5,202.5 C 99.7085,205.051 101.375,208.051 102.5,211.5C 103.849,212.909 105.182,214.243 106.5,215.5C 106.5,216.833 106.5,218.167 106.5,219.5C 107.303,220.423 107.47,221.423 107,222.5C 104.297,225.538 101.297,228.205 98,230.5C 92.351,237.126 87.1844,244.126 82.5,251.5C 81.1327,248.868 80.2994,249.202 80,252.5C 79.6174,251.944 79.1174,251.611 78.5,251.5C 79.9141,249.189 81.7474,247.189 84,245.5C 84,244.167 84,242.833 84,241.5C 86.4821,242.269 88.3154,241.269 89.5,238.5C 88.45,236.898 89.1167,236.065 91.5,236C 92.8721,234.758 93.8721,233.258 94.5,231.5C 92.7224,229.736 91.3891,227.736 90.5,225.5C 92.4628,226.96 94.2962,228.627 96,230.5C 99.1614,228.005 101.995,225.172 104.5,222C 103.008,219.678 101.341,217.511 99.5,215.5C 96.5852,218.959 93.2518,221.959 89.5,224.5C 85.9669,219.055 84.6336,213.055 85.5,206.5C 83.1667,206.5 80.8333,206.5 78.5,206.5C 78.3343,210.846 78.501,215.179 79,219.5C 80.0711,222.932 81.0711,226.265 82,229.5C 80.6233,227.246 79.1233,225.08 77.5,223C 72.5161,222.34 68.1827,220.34 64.5,217C 68.2606,218.696 72.2606,220.196 76.5,221.5C 77.6616,216.869 77.8283,212.202 77,207.5C 76.3292,208.252 75.4959,208.586 74.5,208.5C 75.0577,207.21 76.0577,206.377 77.5,206C 84.3088,205.538 90.9754,204.371 97.5,202.5 Z"/></g>
<g><path style="opacity:0.999" fill="#e0f3fd" d="M 198.5,216.5 C 203.729,221.042 208.896,225.709 214,230.5C 214.845,232.611 215.678,234.611 216.5,236.5C 217.323,238.987 218.323,241.321 219.5,243.5C 219.662,245.527 219.495,247.527 219,249.5C 218.282,250.451 217.449,250.617 216.5,250C 211.98,245.785 208.314,240.952 205.5,235.5C 203.815,234.047 202.149,232.714 200.5,231.5C 197.371,229.201 194.704,226.368 192.5,223C 194.387,219.969 196.387,217.802 198.5,216.5 Z"/></g>
<g><path style="opacity:1" fill="#f1be20" d="M 100.5,201.5 C 100.833,201.5 101.167,201.5 101.5,201.5C 105.26,204.09 108.593,207.256 111.5,211C 115.313,214.103 119.646,215.936 124.5,216.5C 124.343,217.873 124.51,219.207 125,220.5C 125.333,219.833 125.667,219.167 126,218.5C 126.36,221.428 127.693,222.094 130,220.5C 131.354,222.99 132.521,222.99 133.5,220.5C 134.338,220.842 134.672,221.508 134.5,222.5C 139.262,226.68 144.928,228.68 151.5,228.5C 155.476,227.558 159.476,227.391 163.5,228C 164.458,229.147 164.125,230.147 162.5,231C 157.246,232.569 151.912,233.735 146.5,234.5C 142.5,234.167 138.5,233.833 134.5,233.5C 131.05,232.47 127.717,231.137 124.5,229.5C 123.923,226.355 121.923,224.855 118.5,225C 114.576,221.558 110.576,218.392 106.5,215.5C 105.182,214.243 103.849,212.909 102.5,211.5C 101.375,208.051 99.7085,205.051 97.5,202.5C 98.391,201.89 99.391,201.557 100.5,201.5 Z"/></g>
<g><path style="opacity:1" fill="#d6eefc" d="M 203.5,202.5 C 207.426,203.552 211.426,204.218 215.5,204.5C 216.713,206.892 217.379,209.559 217.5,212.5C 216.996,217.178 216.829,221.845 217,226.5C 218.236,228.538 220.069,229.705 222.5,230C 219.591,231.406 217.591,233.572 216.5,236.5C 215.678,234.611 214.845,232.611 214,230.5C 208.896,225.709 203.729,221.042 198.5,216.5C 198.366,214.708 198.699,213.042 199.5,211.5C 201.078,208.677 202.412,205.677 203.5,202.5 Z"/></g>
<g><path style="opacity:1" fill="#d8effc" d="M 90.5,225.5 C 85.1137,226.937 81.4471,230.27 79.5,235.5C 75.8776,232.019 71.8776,229.019 67.5,226.5C 66.7159,223.43 65.3826,220.763 63.5,218.5C 63.5,217.5 63.5,216.5 63.5,215.5C 65.6928,213.478 66.6928,210.811 66.5,207.5C 69.0545,208.388 71.7212,208.721 74.5,208.5C 75.4959,208.586 76.3292,208.252 77,207.5C 77.8283,212.202 77.6616,216.869 76.5,221.5C 72.2606,220.196 68.2606,218.696 64.5,217C 68.1827,220.34 72.5161,222.34 77.5,223C 79.1233,225.08 80.6233,227.246 82,229.5C 81.0711,226.265 80.0711,222.932 79,219.5C 78.501,215.179 78.3343,210.846 78.5,206.5C 80.8333,206.5 83.1667,206.5 85.5,206.5C 84.6336,213.055 85.9669,219.055 89.5,224.5C 93.2518,221.959 96.5852,218.959 99.5,215.5C 101.341,217.511 103.008,219.678 104.5,222C 101.995,225.172 99.1614,228.005 96,230.5C 94.2962,228.627 92.4628,226.96 90.5,225.5 Z"/></g>
<g><path style="opacity:1" fill="#d1ebfa" d="M 215.5,204.5 C 221.089,204.471 226.422,205.471 231.5,207.5C 230.722,208.156 230.056,208.989 229.5,210C 232.072,221.011 233.738,232.178 234.5,243.5C 232.612,242.725 230.612,242.725 228.5,243.5C 228.61,240.941 227.944,238.608 226.5,236.5C 223.123,237.877 220.789,240.21 219.5,243.5C 218.323,241.321 217.323,238.987 216.5,236.5C 217.591,233.572 219.591,231.406 222.5,230C 220.069,229.705 218.236,228.538 217,226.5C 216.829,221.845 216.996,217.178 217.5,212.5C 217.379,209.559 216.713,206.892 215.5,204.5 Z"/></g>
<g><path style="opacity:0.999" fill="#edf7fd" d="M 237.5,201.5 C 243.658,210.161 247.324,219.828 248.5,230.5C 247.624,230.631 246.957,230.298 246.5,229.5C 245.692,227.075 244.692,224.742 243.5,222.5C 242.808,223.025 242.308,223.692 242,224.5C 241.667,228.167 241.333,231.833 241,235.5C 240.667,235.167 240.333,234.833 240,234.5C 238.81,237.849 238.643,241.182 239.5,244.5C 237.974,247.654 237.307,250.987 237.5,254.5C 236.187,251.002 235.187,247.336 234.5,243.5C 233.738,232.178 232.072,221.011 229.5,210C 230.056,208.989 230.722,208.156 231.5,207.5C 234.194,206.139 236.194,204.139 237.5,201.5 Z"/></g>
<g><path style="opacity:1" fill="#a37a27" d="M 101.5,201.5 C 102.978,201.238 104.311,201.571 105.5,202.5C 112.905,209.429 121.238,215.096 130.5,219.5C 131.086,219.291 131.586,218.957 132,218.5C 132.278,219.416 132.778,220.082 133.5,220.5C 132.521,222.99 131.354,222.99 130,220.5C 127.693,222.094 126.36,221.428 126,218.5C 125.667,219.167 125.333,219.833 125,220.5C 124.51,219.207 124.343,217.873 124.5,216.5C 119.646,215.936 115.313,214.103 111.5,211C 108.593,207.256 105.26,204.09 101.5,201.5 Z"/></g>
<g><path style="opacity:1" fill="#a27c27" d="M 193.5,205.5 C 192.757,208.57 190.757,210.236 187.5,210.5C 187.528,212.582 186.861,214.416 185.5,216C 182.167,217.333 178.833,218.667 175.5,220C 174.748,220.671 174.414,221.504 174.5,222.5C 171.799,220.479 169.299,220.479 167,222.5C 166.228,222.355 165.561,222.022 165,221.5C 164.477,223.223 163.477,224.556 162,225.5C 160.584,224.427 159.25,224.427 158,225.5C 157.667,224.833 157.333,224.167 157,223.5C 155.745,225.594 153.912,226.594 151.5,226.5C 148.995,225.254 146.328,224.254 143.5,223.5C 140.508,223.034 137.508,222.701 134.5,222.5C 134.672,221.508 134.338,220.842 133.5,220.5C 133.842,219.662 134.508,219.328 135.5,219.5C 137.667,220.269 139.834,221.269 142,222.5C 148.455,222.417 154.955,222.417 161.5,222.5C 162.665,221.509 163.832,220.509 165,219.5C 171.314,220.733 176.481,218.733 180.5,213.5C 181.425,212.359 182.259,212.359 183,213.5C 184.353,212.315 185.52,210.981 186.5,209.5C 189.293,207.959 191.626,206.626 193.5,205.5 Z"/></g>
<g><path style="opacity:1" fill="#9c7739" d="M 106.5,215.5 C 110.576,218.392 114.576,221.558 118.5,225C 121.923,224.855 123.923,226.355 124.5,229.5C 121.428,228.316 118.428,226.983 115.5,225.5C 114.479,226.002 114.312,226.668 115,227.5C 115.759,229.063 116.926,230.063 118.5,230.5C 118.784,232.415 118.451,234.081 117.5,235.5C 117.762,234.022 117.429,232.689 116.5,231.5C 113.053,227.405 109.72,223.405 106.5,219.5C 106.5,218.167 106.5,216.833 106.5,215.5 Z"/></g>
<g><path style="opacity:0.996" fill="#f4fafd" d="M 248.5,230.5 C 249.344,234.099 249.677,237.766 249.5,241.5C 248.986,248.208 247.153,254.541 244,260.5C 242.612,261.554 241.112,261.72 239.5,261C 238.603,258.913 237.936,256.746 237.5,254.5C 237.307,250.987 237.974,247.654 239.5,244.5C 238.643,241.182 238.81,237.849 240,234.5C 240.333,234.833 240.667,235.167 241,235.5C 241.333,231.833 241.667,228.167 242,224.5C 242.308,223.692 242.808,223.025 243.5,222.5C 244.692,224.742 245.692,227.075 246.5,229.5C 246.957,230.298 247.624,230.631 248.5,230.5 Z"/></g>
<g><path style="opacity:0.908" fill="#e5f2f5" d="M 199.5,211.5 C 198.699,213.042 198.366,214.708 198.5,216.5C 196.387,217.802 194.387,219.969 192.5,223C 194.704,226.368 197.371,229.201 200.5,231.5C 203.749,236.622 206.582,241.955 209,247.5C 212.368,252.23 216.202,256.563 220.5,260.5C 225.286,265.06 230.953,267.727 237.5,268.5C 238.959,268.433 240.292,268.766 241.5,269.5C 238.481,271.337 235.148,271.837 231.5,271C 222.59,267.955 215.09,262.789 209,255.5C 205.081,249.33 201.414,242.997 198,236.5C 194.934,233.604 192.101,230.604 189.5,227.5C 189.977,224.345 190.977,221.345 192.5,218.5C 194.669,216.66 196.002,214.326 196.5,211.5C 197.5,211.5 198.5,211.5 199.5,211.5 Z"/></g>
<g><path style="opacity:1" fill="#f1c72d" d="M 200.5,201.5 C 201.609,201.557 202.609,201.89 203.5,202.5C 202.412,205.677 201.078,208.677 199.5,211.5C 198.5,211.5 197.5,211.5 196.5,211.5C 196.002,214.326 194.669,216.66 192.5,218.5C 189.572,220.642 186.572,222.642 183.5,224.5C 182.504,224.586 181.671,224.252 181,223.5C 180.072,225.335 178.906,225.668 177.5,224.5C 175.112,226.361 172.446,227.694 169.5,228.5C 168.304,228.154 168.304,227.654 169.5,227C 168.167,226.667 166.833,226.333 165.5,226C 165.957,225.586 166.291,225.086 166.5,224.5C 169.317,224.903 171.984,224.237 174.5,222.5C 174.414,221.504 174.748,220.671 175.5,220C 178.833,218.667 182.167,217.333 185.5,216C 186.861,214.416 187.528,212.582 187.5,210.5C 190.757,210.236 192.757,208.57 193.5,205.5C 194.117,205.611 194.617,205.944 195,206.5C 195.493,203.385 197.326,201.719 200.5,201.5 Z"/></g>
<g><path style="opacity:1" fill="#eac232" d="M 174.5,222.5 C 171.984,224.237 169.317,224.903 166.5,224.5C 166.291,225.086 165.957,225.586 165.5,226C 166.833,226.333 168.167,226.667 169.5,227C 168.304,227.654 168.304,228.154 169.5,228.5C 172.446,227.694 175.112,226.361 177.5,224.5C 178.906,225.668 180.072,225.335 181,223.5C 181.671,224.252 182.504,224.586 183.5,224.5C 183.586,225.496 183.252,226.329 182.5,227C 180.618,227.198 178.952,227.698 177.5,228.5C 177.5,228.833 177.5,229.167 177.5,229.5C 176.005,229.989 174.671,230.655 173.5,231.5C 172.85,231.196 172.183,230.863 171.5,230.5C 165.169,232.271 159.002,234.271 153,236.5C 150.761,235.909 148.594,235.242 146.5,234.5C 151.912,233.735 157.246,232.569 162.5,231C 164.125,230.147 164.458,229.147 163.5,228C 159.476,227.391 155.476,227.558 151.5,228.5C 144.928,228.68 139.262,226.68 134.5,222.5C 137.508,222.701 140.508,223.034 143.5,223.5C 146.328,224.254 148.995,225.254 151.5,226.5C 153.912,226.594 155.745,225.594 157,223.5C 157.333,224.167 157.667,224.833 158,225.5C 159.25,224.427 160.584,224.427 162,225.5C 163.477,224.556 164.477,223.223 165,221.5C 165.561,222.022 166.228,222.355 167,222.5C 169.299,220.479 171.799,220.479 174.5,222.5 Z"/></g>
<g><path style="opacity:0.999" fill="#edf7fd" d="M 63.5,215.5 C 63.5,216.5 63.5,217.5 63.5,218.5C 62.6491,229.311 60.9825,239.978 58.5,250.5C 57.5961,254.145 56.2627,257.645 54.5,261C 52.0192,261.76 50.3525,260.926 49.5,258.5C 50.0214,249.684 51.3547,240.851 53.5,232C 53.2935,230.634 52.9602,229.301 52.5,228C 55.2991,225.04 54.9658,222.54 51.5,220.5C 54.08,219.001 56.7467,217.501 59.5,216C 60.7932,215.51 62.1266,215.343 63.5,215.5 Z"/></g>
<g><path style="opacity:1" fill="#a08048" d="M 192.5,218.5 C 190.977,221.345 189.977,224.345 189.5,227.5C 186.607,231.07 183.607,234.404 180.5,237.5C 179.772,234.921 179.272,232.254 179,229.5C 178.617,228.944 178.117,228.611 177.5,228.5C 178.952,227.698 180.618,227.198 182.5,227C 183.252,226.329 183.586,225.496 183.5,224.5C 186.572,222.642 189.572,220.642 192.5,218.5 Z"/></g>
<g><path style="opacity:1" fill="#c7e7fc" d="M 63.5,218.5 C 65.3826,220.763 66.7159,223.43 67.5,226.5C 71.8776,229.019 75.8776,232.019 79.5,235.5C 77.6083,239.29 76.2749,243.29 75.5,247.5C 75.1104,249.982 76.1104,251.315 78.5,251.5C 76.3157,252.266 73.9823,252.933 71.5,253.5C 69.5871,250.434 68.2538,247.101 67.5,243.5C 67.6618,241.159 68.6618,239.325 70.5,238C 69.5399,236.581 68.7065,235.081 68,233.5C 68.025,236.872 67.525,240.372 66.5,244C 67.5011,247.137 68.0011,250.303 68,253.5C 66.2663,252.751 64.433,252.251 62.5,252C 61.3333,251.5 60.5,250.667 60,249.5C 59.6174,250.056 59.1174,250.389 58.5,250.5C 60.9825,239.978 62.6491,229.311 63.5,218.5 Z"/></g>
<g><path style="opacity:0.999" fill="#e0f2fd" d="M 90.5,225.5 C 91.3891,227.736 92.7224,229.736 94.5,231.5C 93.8721,233.258 92.8721,234.758 91.5,236C 89.1167,236.065 88.45,236.898 89.5,238.5C 88.3154,241.269 86.4821,242.269 84,241.5C 84,242.833 84,244.167 84,245.5C 81.7474,247.189 79.9141,249.189 78.5,251.5C 76.1104,251.315 75.1104,249.982 75.5,247.5C 76.2749,243.29 77.6083,239.29 79.5,235.5C 81.4471,230.27 85.1137,226.937 90.5,225.5 Z"/></g>
<g><path style="opacity:0.921" fill="#e4f1f6" d="M 106.5,219.5 C 109.72,223.405 113.053,227.405 116.5,231.5C 117.429,232.689 117.762,234.022 117.5,235.5C 115.008,232.531 112.508,229.531 110,226.5C 100.623,233.258 93.6231,241.924 89,252.5C 82.4559,261.38 73.9559,267.546 63.5,271C 57.1012,272.534 51.9346,270.701 48,265.5C 45.646,261.797 44.146,257.797 43.5,253.5C 43.5,251.833 43.5,250.167 43.5,248.5C 45.6183,252.893 47.4516,257.56 49,262.5C 54.1145,268.923 60.2812,270.089 67.5,266C 73.6512,262.349 78.6512,257.515 82.5,251.5C 87.1844,244.126 92.351,237.126 98,230.5C 101.297,228.205 104.297,225.538 107,222.5C 107.47,221.423 107.303,220.423 106.5,219.5 Z"/></g>
<g><path style="opacity:0.985" fill="#14120f" d="M 120.5,235.5 C 120.66,237.153 121.326,238.486 122.5,239.5C 122.5,240.167 122.5,240.833 122.5,241.5C 122.5,242.167 122.833,242.5 123.5,242.5C 124.782,245.617 126.949,247.95 130,249.5C 132.49,253.406 131.823,256.406 128,258.5C 125.497,258.01 123.497,256.677 122,254.5C 119.163,248.482 117.663,242.148 117.5,235.5C 118.451,234.081 118.784,232.415 118.5,230.5C 118.369,229.624 118.702,228.957 119.5,228.5C 120.474,230.743 120.808,233.076 120.5,235.5 Z"/></g>
<g><path style="opacity:1" fill="#4b290a" d="M 124.5,229.5 C 127.717,231.137 131.05,232.47 134.5,233.5C 140.737,235.852 147.237,237.518 154,238.5C 156.899,238.023 159.566,237.023 162,235.5C 163.613,236.622 164.78,236.122 165.5,234C 167.833,233.667 170.167,233.333 172.5,233C 173.056,232.617 173.389,232.117 173.5,231.5C 174.671,230.655 176.005,229.989 177.5,229.5C 177.813,233.042 177.479,236.375 176.5,239.5C 176.649,238.448 176.483,237.448 176,236.5C 170.123,239.537 164.289,242.537 158.5,245.5C 156.876,245.36 155.71,246.027 155,247.5C 152.281,246.556 149.448,246.223 146.5,246.5C 142.629,245.16 138.629,244.327 134.5,244C 130.313,240.405 125.646,237.572 120.5,235.5C 120.808,233.076 120.474,230.743 119.5,228.5C 118.702,228.957 118.369,229.624 118.5,230.5C 116.926,230.063 115.759,229.063 115,227.5C 114.312,226.668 114.479,226.002 115.5,225.5C 118.428,226.983 121.428,228.316 124.5,229.5 Z"/></g>
<g><path style="opacity:1" fill="#a68a40" d="M 173.5,231.5 C 173.389,232.117 173.056,232.617 172.5,233C 170.167,233.333 167.833,233.667 165.5,234C 164.78,236.122 163.613,236.622 162,235.5C 159.566,237.023 156.899,238.023 154,238.5C 147.237,237.518 140.737,235.852 134.5,233.5C 138.5,233.833 142.5,234.167 146.5,234.5C 148.594,235.242 150.761,235.909 153,236.5C 159.002,234.271 165.169,232.271 171.5,230.5C 172.183,230.863 172.85,231.196 173.5,231.5 Z"/></g>
<g><path style="opacity:0.991" fill="#151311" d="M 177.5,228.5 C 178.117,228.611 178.617,228.944 179,229.5C 179.272,232.254 179.772,234.921 180.5,237.5C 179.295,244.62 176.628,251.12 172.5,257C 166.245,261.372 163.745,259.872 165,252.5C 165.48,250.867 166.313,249.534 167.5,248.5C 169.404,248.262 170.738,247.262 171.5,245.5C 173.89,244.109 175.557,242.109 176.5,239.5C 177.479,236.375 177.813,233.042 177.5,229.5C 177.5,229.167 177.5,228.833 177.5,228.5 Z"/></g>
<g><path style="opacity:0.737" fill="#c4ac69" d="M 120.5,235.5 C 125.646,237.572 130.313,240.405 134.5,244C 138.629,244.327 142.629,245.16 146.5,246.5C 146.631,247.239 146.464,247.906 146,248.5C 144.612,247.446 143.112,247.28 141.5,248C 142.056,248.383 142.389,248.883 142.5,249.5C 135.82,247.988 129.487,245.655 123.5,242.5C 122.833,242.5 122.5,242.167 122.5,241.5C 123.833,240.833 123.833,240.167 122.5,239.5C 121.326,238.486 120.66,237.153 120.5,235.5 Z"/></g>
<g><path style="opacity:0.776" fill="#ceb76e" d="M 176.5,239.5 C 175.557,242.109 173.89,244.109 171.5,245.5C 170.211,244.499 168.878,244.666 167.5,246C 168.598,246.77 168.598,247.603 167.5,248.5C 165.179,248.229 163.179,248.896 161.5,250.5C 159.929,249.691 158.262,249.357 156.5,249.5C 156.527,247.801 157.194,246.467 158.5,245.5C 164.289,242.537 170.123,239.537 176,236.5C 176.483,237.448 176.649,238.448 176.5,239.5 Z"/></g>
<g><path style="opacity:1" fill="#b8e0fb" d="M 52.5,211.5 C 49.6415,217.91 47.4748,224.576 46,231.5C 44.6453,240.892 45.812,249.892 49.5,258.5C 50.3525,260.926 52.0192,261.76 54.5,261C 56.2627,257.645 57.5961,254.145 58.5,250.5C 59.1174,250.389 59.6174,250.056 60,249.5C 60.5,250.667 61.3333,251.5 62.5,252C 64.433,252.251 66.2663,252.751 68,253.5C 68.0011,250.303 67.5011,247.137 66.5,244C 67.525,240.372 68.025,236.872 68,233.5C 68.7065,235.081 69.5399,236.581 70.5,238C 68.6618,239.325 67.6618,241.159 67.5,243.5C 68.2538,247.101 69.5871,250.434 71.5,253.5C 73.9823,252.933 76.3157,252.266 78.5,251.5C 79.1174,251.611 79.6174,251.944 80,252.5C 80.2994,249.202 81.1327,248.868 82.5,251.5C 78.6512,257.515 73.6512,262.349 67.5,266C 60.2812,270.089 54.1145,268.923 49,262.5C 47.4516,257.56 45.6183,252.893 43.5,248.5C 42.8235,235.888 45.1568,223.888 50.5,212.5C 50.9569,211.702 51.6236,211.369 52.5,211.5 Z"/></g>
<g><path style="opacity:1" fill="#c2e5fd" d="M 200.5,231.5 C 202.149,232.714 203.815,234.047 205.5,235.5C 208.314,240.952 211.98,245.785 216.5,250C 217.449,250.617 218.282,250.451 219,249.5C 219.495,247.527 219.662,245.527 219.5,243.5C 221.481,241.856 223.481,240.19 225.5,238.5C 226.657,241.784 226.824,245.118 226,248.5C 223.859,252.444 222.025,256.444 220.5,260.5C 216.202,256.563 212.368,252.23 209,247.5C 206.582,241.955 203.749,236.622 200.5,231.5 Z"/></g>
<g><path style="opacity:0.997" fill="#b4822a" d="M 158.5,245.5 C 157.194,246.467 156.527,247.801 156.5,249.5C 153.136,251.904 150.47,254.904 148.5,258.5C 146.245,255.652 144.245,252.652 142.5,249.5C 142.389,248.883 142.056,248.383 141.5,248C 143.112,247.28 144.612,247.446 146,248.5C 146.464,247.906 146.631,247.239 146.5,246.5C 149.448,246.223 152.281,246.556 155,247.5C 155.71,246.027 156.876,245.36 158.5,245.5 Z"/></g>
<g><path style="opacity:1" fill="#bce3fc" d="M 234.5,243.5 C 235.187,247.336 236.187,251.002 237.5,254.5C 237.936,256.746 238.603,258.913 239.5,261C 241.112,261.72 242.612,261.554 244,260.5C 247.153,254.541 248.986,248.208 249.5,241.5C 250.158,242.793 250.492,244.293 250.5,246C 249.836,255.853 245.503,263.353 237.5,268.5C 230.953,267.727 225.286,265.06 220.5,260.5C 222.025,256.444 223.859,252.444 226,248.5C 226.824,245.118 226.657,241.784 225.5,238.5C 223.481,240.19 221.481,241.856 219.5,243.5C 220.789,240.21 223.123,237.877 226.5,236.5C 227.944,238.608 228.61,240.941 228.5,243.5C 230.612,242.725 232.612,242.725 234.5,243.5 Z"/></g>
<g><path style="opacity:0.722" fill="#e4f1f6" d="M 267.5,253.5 C 268.649,253.791 269.316,254.624 269.5,256C 266.236,273.457 255.903,281.623 238.5,280.5C 254.321,278.01 263.987,269.01 267.5,253.5 Z"/></g>
<g><path style="opacity:0.548" fill="#e7f1f3" d="M 24.5,260.5 C 26.0766,266.333 28.5766,272 32,277.5C 35.0823,279.625 38.2489,281.625 41.5,283.5C 32.8366,283.024 27.3366,278.357 25,269.5C 24.502,266.518 24.3354,263.518 24.5,260.5 Z"/></g>
<g><path style="opacity:0.72" fill="#e6f1f5" d="M 30.5,254.5 C 34.4786,270.311 44.4786,279.811 60.5,283C 48.266,284.463 39.0993,279.629 33,268.5C 30.8421,263.912 30.0088,259.245 30.5,254.5 Z"/></g>
<g><path style="opacity:0.627" fill="#e7f1f3" d="M 272.5,259.5 C 275.58,266.834 273.913,273.334 267.5,279C 264.285,280.774 260.952,282.274 257.5,283.5C 256.289,282.726 256.289,281.893 257.5,281C 267.552,277.407 272.552,270.24 272.5,259.5 Z"/></g>
</svg>
